<svg version="1.1" xmlns="http://www.w3.org/2000/svg" xmlns:xlink="http://www.w3.org/1999/xlink" width="108.10439" height="101.1363" viewBox="0,0,108.10439,101.1363"><g transform="translate(-180.94623,-132.19282)"><g data-paper-data="{&quot;isPaintingLayer&quot;:true}" fill-rule="nonzero" stroke-linejoin="miter" stroke-miterlimit="10" stroke-dasharray="" stroke-dashoffset="0" style="mix-blend-mode: normal"><g data-paper-data="{&quot;index&quot;:null}" fill="#949494" stroke="#000000" stroke-width="2"><path d="M220.15946,232.16577c0,0 -11.98909,-6.55279 -12.90271,-13.90068c-0.32841,-2.64131 -0.62687,-2.67259 -1.25582,-7.04418c-0.22654,-1.57463 -0.34981,-3.25656 -0.59382,-5.16393c-0.65436,-5.11481 -1.39237,-10.60727 -1.39237,-10.60727c0,0 11.99667,-5.04162 15.80516,-7.4446c0.36773,-0.23201 18.46703,-11.09183 18.83668,-11.32838c9.04737,-5.78986 5.99863,-4.06064 5.99863,-4.06064c0,0 2.49598,-5.4187 4.03622,-6.02355c2.95774,-1.16148 3.73463,-5.50605 8.17399,-1.62268c2.08657,1.82524 2.09339,2.16969 4.33748,5.0633c3.27586,4.22405 7.81407,10.9667 9.16612,16.48709c1.81966,7.42959 -0.16826,13.22934 -0.16826,13.22934z" stroke-linecap="butt"/><path d="M239.30602,218.96162c0,0 2.95228,-12.46948 -2.34646,-20.20962c-2.59725,-3.43944 -11.3199,-8.31343 -11.3199,-8.31343l-6.07671,-2.06382l5.09381,1.84142c0,0 3.21771,-2.58676 4.98104,-4.00432c1.99651,-1.60502 6.38557,-5.13344 6.38557,-5.13344l-1.08812,-1.27943" stroke-linecap="round"/><path d="M248.7292,178.95959c0,0 2.91045,-1.23 6.03932,-1.2645c3.81345,-0.04206 8.12088,1.31212 10.0111,4.05818c1.8749,2.72381 3.74139,7.19745 2.95576,11.15629c-0.96943,4.88501 -5.01595,9.11365 -6.51812,9.83544c-4.0735,1.95735 -11.53775,-2.95107 -12.82074,-4.45222c-3.53386,-4.13476 -5.11137,-11.17396 -4.98782,-12.75651c0.23038,-2.95073 5.32051,-6.57668 5.32051,-6.57668" stroke-linecap="round"/><path d="M213.3141,216.7518c-2.62095,-4.15396 -1.4595,-8.16905 1.0824,-11.79316c0.78467,-1.11876 2.61756,-3.46062 3.83446,-4.22841c5.1589,-3.25501 11.0646,-1.38156 14.49463,4.05473c3.43003,5.43628 1.93283,13.66575 -3.22608,16.92076c-5.15892,3.25503 -12.75538,0.48236 -16.18539,-4.95392z" stroke-linecap="butt"/></g><g data-paper-data="{&quot;index&quot;:null}" stroke="#000000" stroke-width="2" stroke-linecap="round"><path d="M182.16251,201.45563c0,0 8.79023,-4.38911 14.58764,-4.59139c2.49349,-0.08701 5.53726,0.44375 6.76238,1.37754c1.42244,1.08419 0.80381,2.61608 0.48793,2.85025c-2.13058,1.57948 -7.22994,2.73872 -9.45711,2.81416c-3.90392,0.13225 -12.59712,-2.35237 -12.59712,-2.35237" fill="#d8d8d8"/><path d="M199.75564,202.85876l-0.94101,-6.09432" fill="none"/></g><path d="M257.26425,206.05492l-8.45099,-12.69182c0,0 -2.64129,-4.83713 -1.67057,-6.54801c0.55108,-0.97129 2.09912,-4.53219 3.71994,-5.83134c2.02963,-1.62681 4.89618,-0.56477 6.08426,-0.72167c0.51875,-0.06851 3.63141,2.99115 3.63141,2.99115c0,0 1.55893,3.0649 2.59089,5.09375c1.53161,3.01118 5.70723,11.22053 5.70723,11.22053z" data-paper-data="{&quot;index&quot;:null}" fill="#949494" stroke="#000000" stroke-width="2.5" stroke-linecap="butt"/><g data-paper-data="{&quot;index&quot;:null}"><g><path d="M243.59165,217.16096l-4.00431,-4.38489l3.68331,-3.36361l4.00431,4.38489z" data-paper-data="{&quot;index&quot;:null}" fill="#000000" stroke="none" stroke-width="0" stroke-linecap="butt"/><path d="M255.84612,211.18464l3.7773,3.26636l3.96778,2.57971l1.27289,4.29706l1.57559,-3.01386l2.33902,-1.3231l1.2965,-1.11932l2.44091,-0.80184l0.12848,3.97959l-3.12457,9.48606l-1.2965,1.11932l-3.05077,2.11163l-9.44766,-2.37443l-5.58475,-9.19069z" fill="#949494" stroke="#000000" stroke-width="2.5" stroke-linecap="round"/><path d="M249.16134,220.17604l-4.47575,-0.74865l-1.42499,-2.86029l0.95243,-3.43323l4.55106,-2.18842l5.44147,-0.95541l1.64057,1.19462z" fill="#242424" stroke="#000000" stroke-width="2.5" stroke-linecap="round"/><path d="M247.82346,211.67048l2.5812,0.46956l2.02303,4.25866" fill="none" stroke="#000000" stroke-width="2.5" stroke-linecap="round"/></g><g stroke="none" stroke-linecap="butt"><path d="M262.75031,230.61205l-5.70728,-1.01778l-5.71605,-10.40763l4.50416,-6.3887l6.78094,4.54445l2.051,5.75671z" fill="#8c6200" stroke-width="NaN"/><path d="M251.89528,223.893l-0.6685,-5.36585l4.56742,-6.06838l2.36024,2.07326z" fill="#8c0081" stroke-width="NaN"/><path d="M272.18948,219.49739l-4.24265,10.50361l-5.72102,-0.41962l1.98747,-7.04845l2.11735,-2.59819l1.5815,-3.0851l1.2135,-0.61297l2.67715,-0.60279z" fill="#8c0081" stroke-width="0"/><g fill="#ffffff" stroke-width="0.5"><path d="M255.75584,218.67525c-0.00016,-0.00042 -0.00033,-0.00084 -0.0005,-0.00127c-0.10123,-0.25426 0.15302,-0.3555 0.15302,-0.3555c1.24717,-0.48169 2.14795,0.30167 2.12159,1.41202c-0.11551,-0.05995 -0.22361,0.03634 -0.22361,0.03634c-0.7332,0.65312 -1.47637,1.29032 -2.16876,1.98377c-0.46115,-0.08099 -0.84862,-0.27012 -0.95422,-0.58782c-0.14875,-0.44753 0.03068,-1.02707 0.17597,-1.43565c0.23189,-0.51633 0.50942,-0.76064 0.89651,-1.05192zM255.54275,220.36302c0.08464,-0.0754 0.09214,-0.20514 0.01674,-0.28978c-0.0754,-0.08465 -0.20515,-0.09213 -0.2898,-0.01674c-0.08465,0.0754 -0.09214,0.20514 -0.01674,0.28978c0.0754,0.08464 0.20514,0.09214 0.28978,0.01674zM256.77167,219.2225c0.08465,-0.0754 0.09212,-0.20516 0.01672,-0.2898c-0.0754,-0.08465 -0.20514,-0.09215 -0.28979,-0.01675c-0.08465,0.0754 -0.09213,0.20515 -0.01674,0.2898c0.0754,0.08464 0.20514,0.09214 0.28978,0.01674z"/><path d="M258.76223,218.93548c0.28381,-0.25282 0.53661,0.03099 0.53661,0.03099l-0.07981,-0.02927c0.19435,0.07987 0.36405,0.20901 0.51283,0.36464l0.00898,-0.01706l0.01125,0.00592l0.07677,-0.0835l0.34772,0.31969c0.01055,0.00946 0.02068,0.01961 0.03032,0.03045c0.13963,0.15674 0.12577,0.39699 -0.03099,0.53661c-0.08528,0.07598 -0.19532,0.10649 -0.30038,0.09328c-0.00097,0.00672 -0.00171,0.01042 -0.00171,0.01042c-0.11962,0.58233 -0.28379,1.14559 -0.4352,1.71305c0.27927,-0.05434 0.56053,-0.10326 0.84459,-0.14543c0.78271,-0.1162 1.55791,-0.54234 2.29473,-0.23371c-0.05034,-0.02133 -0.17565,-0.07444 -0.22877,-0.09697l0.0612,-0.12077l-0.05501,-0.01246l0.08934,-0.39427c0.01629,-0.07628 0.05615,-0.14825 0.11885,-0.20412c0.15675,-0.13962 0.397,-0.12575 0.53661,0.03101c0.02313,0.02596 0.04205,0.05422 0.05681,0.08392l0.17791,0.33946l-0.06005,0.03147c0.17993,0.27761 0.21083,0.54045 0.13427,1.0171c0.03635,0.10524 0.0411,0.25227 -0.1136,0.39008c-0.28381,0.25282 -0.53662,-0.03098 -0.53662,-0.03098l-0.12033,-0.36364c0.00963,-0.04287 0.01557,-0.08474 0.01907,-0.12551c-0.56425,0.11643 -1.35826,0.25821 -1.49796,0.28654c-0.64993,0.13179 -1.29188,0.26469 -1.93105,0.40423c-0.04035,0.18738 -0.07634,0.37643 -0.106,0.56796c-0.05735,0.37026 -0.06293,0.73972 -0.08081,1.10934c0.25719,-0.04065 0.54158,-0.03785 0.90119,0.0342l0.44936,0.02594c0.0971,0.0056 0.19206,0.04826 0.26188,0.12662c0.13963,0.15675 0.12575,0.397 -0.03098,0.53662c-0.03546,0.03158 -0.07518,0.05531 -0.11705,0.0713l-0.69534,0.28454l-0.01145,-0.02797c-0.54342,0.33112 -1.04433,0.48728 -1.93307,0.56276l-0.18803,-0.00703c0,0 -0.37944,-0.02192 -0.35753,-0.40136c0.00214,-0.03695 0.00766,-0.07012 0.0159,-0.09984c-0.01639,-0.02674 -0.03104,-0.05763 -0.04336,-0.0933c-0.1242,-0.3592 0.235,-0.48341 0.235,-0.48341c0.28678,-0.09788 0.52439,-0.20032 0.74466,-0.29018c0.04506,-0.48809 0.0237,-0.97668 0.09873,-1.46642c0.01376,-0.08992 0.02901,-0.17937 0.04551,-0.26842c-0.57121,0.13094 -1.14197,0.26907 -1.71605,0.41843c0.00638,0.34856 -0.06807,0.66026 -0.32134,0.78429c-1.17591,0.57591 -0.99579,-1.59648 -0.90433,-2.00169l0.11592,-0.23558c0,0 0.1893,-0.3296 0.51888,-0.14029c0.01899,0.0109 0.03626,0.02228 0.05195,0.03403c0.57436,-0.55443 1.17787,-1.07715 1.77627,-1.60842c-0.01511,0.06562 -0.03329,0.13187 -0.0547,0.19861c-0.03294,0.10273 -0.30559,0.97357 -0.37743,1.05348c-0.21322,0.23721 -0.75799,0.37353 -1.31758,0.37787c0.0187,0.01646 0.03465,0.0335 0.04818,0.05094c0.18741,0.05881 0.24441,0.26965 0.24441,0.26965c0.02904,0.10833 0.07361,0.26958 0.1151,0.45499c0.6732,-0.1827 1.34041,-0.36176 2.0142,-0.51702c0.17391,-0.67966 0.38072,-1.34875 0.51812,-2.04037c0,0 0.00801,-0.03956 0.03167,-0.09026c-0.22205,-0.03427 -0.44127,-0.09267 -0.65318,-0.16507c0,0 -0.35883,-0.12531 -0.23351,-0.48413c0.08481,-0.24282 0.27656,-0.26393 0.39166,-0.25219c0.02116,-0.03987 0.05243,-0.08019 0.09683,-0.11975z"/></g></g></g><path d="M222.2686,201.01312l17.12038,-2.65995l2.93586,10.88935l-0.35642,1.55625l-14.85144,4.84916l-6.94857,-0.14261l-3.48772,-4.12525l-0.09585,-5.38757l1.763,-2.85929z" data-paper-data="{&quot;index&quot;:null}" fill="#949494" stroke="#000000" stroke-width="2.5" stroke-linecap="round"/><g data-paper-data="{&quot;index&quot;:null}"><g><path d="M266.25042,209.63982l-3.15488,-5.03075l4.22583,-2.6501l3.15488,5.03075z" fill="#000000" stroke="none" stroke-width="0" stroke-linecap="butt"/><path d="M287.803,230.3624c0,0 0.07825,1.26575 -0.9562,1.3386c-2.71067,0.1909 -15.90816,-0.15097 -15.90816,-0.15097l-9.9761,-14.4891c0,0 7.01669,-2.18114 9.74102,-3.31952c1.05692,-0.44164 8.0137,8.73896 8.80524,8.70022c0.82275,-0.04027 -1.60082,2.84679 -1.52667,3.65287c0.08371,0.91014 2.63353,-0.2451 3.17013,-0.2451c1.5119,0 4.27547,0.47505 4.27547,0.47505l2.37526,4.03795z" fill="#949494" stroke="#000000" stroke-width="2.5" stroke-linecap="butt"/><path d="M259.29985,216.11082l5.70063,-8.55094l2.9246,-0.58112l2.44228,0.83612l1.52138,2.35779l-0.23753,3.32537z" fill="#242424" stroke="#000000" stroke-width="2.5" stroke-linecap="butt"/><path d="M266.1881,214.68567l-1.90021,-0.9501l-0.71258,-2.13774" fill="none" stroke="#000000" stroke-width="2.5" stroke-linecap="round"/><path d="M276.1642,231.19374l1.90021,-5.70063" fill="none" stroke="#000000" stroke-width="2.5" stroke-linecap="round"/></g><g stroke="none" stroke-linecap="butt"><path d="M272.40076,230.86938l-10.16992,-12.77164l9.12586,-4.54021l1.36026,3.00741l5.18466,6.38923z" fill="#8c6200" stroke-width="NaN"/><path d="M264.72353,221.11324l-2.25813,-3.20357l8.94351,-3.971l1.38313,3.20357z" fill="#8c0081" stroke-width="NaN"/><path d="M272.00373,231.08844l3.75,-10.25l2.25,2l0.19822,4.28095l3.06964,-0.27925l3.39558,0.69924l0.91506,1.00548l1.2965,2.41859z" fill="#8c0081" stroke-width="0"/><g fill="#ffffff" stroke-width="0.5"><path d="M267.91905,219.11729c-0.00014,-0.00043 -0.00027,-0.00086 -0.00041,-0.0013c-0.08184,-0.26115 0.17932,-0.34299 0.17932,-0.34299c1.27986,-0.38655 2.11918,0.46231 2.00941,1.56755c-0.11067,-0.06846 -0.22571,0.01944 -0.22571,0.01944c-0.78022,0.59614 -1.56921,1.17565 -2.31177,1.81508c-0.45375,-0.11543 -0.82591,-0.33315 -0.90732,-0.65789c-0.11469,-0.45744 0.10781,-1.02187 0.28341,-1.41836c0.27006,-0.49744 0.56518,-0.7202 0.97306,-0.98153zM267.61813,220.49656c-0.06882,-0.09008 -0.19763,-0.10731 -0.28771,-0.03848c-0.09008,0.06882 -0.10731,0.19763 -0.03848,0.28771c0.06882,0.09008 0.19763,0.10731 0.28771,0.03848c0.09008,-0.06882 0.10731,-0.19763 0.03848,-0.28771zM268.89083,219.73938c0.09008,-0.06882 0.10731,-0.19763 0.03848,-0.28771c-0.06882,-0.09008 -0.19763,-0.10731 -0.28771,-0.03848c-0.09007,0.06882 -0.10731,0.19763 -0.03848,0.28771c0.06883,0.09008 0.19764,0.10731 0.28772,0.03848z"/><path d="M270.89735,219.60284c0.302,-0.23075 0.53276,0.07125 0.53276,0.07125l-0.07739,-0.03519c0.18779,0.09425 0.3473,0.23579 0.48397,0.40217l0.01024,-0.01635l0.01077,0.00675l0.08284,-0.07749l0.3227,0.34493c0.00981,0.01023 0.01915,0.02111 0.02795,0.03264c0.12744,0.16679 0.09555,0.40532 -0.07125,0.53276c-0.09076,0.06935 -0.20277,0.0915 -0.30655,0.07043c-0.00148,0.00663 -0.0025,0.01025 -0.0025,0.01025c-0.16307,0.57169 -0.36914,1.12101 -0.56277,1.67548c0.28258,-0.03317 0.5667,-0.06082 0.85314,-0.08151c0.78922,-0.05701 1.59427,-0.42367 2.3058,-0.06052c-0.04858,-0.02506 -0.16955,-0.08745 -0.22083,-0.11389l0.07011,-0.11583l-0.05392,-0.01657l0.11873,-0.38644c0.02199,-0.07484 0.06713,-0.14361 0.13386,-0.1946c0.1668,-0.12744 0.40532,-0.09555 0.53276,0.07125c0.02111,0.02763 0.03786,0.05723 0.05033,0.08796l0.15187,0.35187l-0.06224,0.02687c0.15855,0.29034 0.16959,0.55478 0.05741,1.02431c0.02832,0.10768 0.02201,0.25464 -0.14263,0.38044c-0.30201,0.23075 -0.53276,-0.07125 -0.53276,-0.07125l-0.09265,-0.37166c0.01282,-0.04202 0.02191,-0.08333 0.02845,-0.12372c-0.57141,0.07368 -1.37384,0.15536 -1.51527,0.1731c-0.658,0.08255 -1.30812,0.1668 -1.95597,0.25789c-0.05432,0.18382 -0.10442,0.36964 -0.1484,0.55838c-0.08503,0.3649 -0.11836,0.73289 -0.16399,1.10012c0.25952,-0.02119 0.54289,0.00298 0.89606,0.10187l0.44614,0.05966c0.09641,0.01289 0.1879,0.06257 0.25162,0.14596c0.12744,0.1668 0.09555,0.40532 -0.07125,0.53276c-0.03773,0.02883 -0.07913,0.04951 -0.12208,0.06231l-0.71476,0.23145l-0.00931,-0.02875c-0.56678,0.28934 -1.07802,0.40737 -1.96991,0.41584l-0.18697,-0.02115c0,0 -0.37673,-0.05039 -0.32634,-0.42711c0.00491,-0.03669 0.01291,-0.06933 0.02336,-0.09836c-0.01433,-0.02788 -0.02662,-0.0598 -0.03623,-0.09629c-0.09684,-0.36752 0.27068,-0.46437 0.27068,-0.46437c0.29334,-0.07604 0.53798,-0.16032 0.76438,-0.23337c0.08163,-0.48331 0.09705,-0.97213 0.20871,-1.45484c0.0205,-0.08863 0.04242,-0.17667 0.06555,-0.26423c-0.57944,0.08761 -1.15898,0.18245 -1.74265,0.28822c-0.01985,0.34805 -0.11751,0.65326 -0.37939,0.75791c-1.21588,0.48585 -0.87293,-1.66685 -0.75127,-2.06402l0.13331,-0.22619c0,0 0.21354,-0.31442 0.52795,-0.10088c0.01812,0.01231 0.03447,0.02495 0.04923,0.03784c0.61442,-0.50967 1.25552,-0.98553 1.89217,-1.47031c-0.01998,0.0643 -0.04311,0.12901 -0.06947,0.19395c-0.04057,0.09997 -0.37793,0.94783 -0.45557,1.02212c-0.23046,0.22051 -0.78393,0.31548 -1.34227,0.27773c0.01741,0.01782 0.03203,0.03603 0.04421,0.05441c0.18246,0.07274 0.22345,0.28727 0.22345,0.28727c0.02081,0.11021 0.05315,0.27435 0.08057,0.46236c0.68502,-0.13157 1.36381,-0.25996 2.04737,-0.36411c0.22453,-0.66466 0.48106,-1.31631 0.67007,-1.99564c0,0 0.01095,-0.03883 0.03837,-0.08763c-0.21885,-0.05087 -0.43306,-0.12561 -0.63892,-0.21373c0,0 -0.34839,-0.15193 -0.19645,-0.50032c0.10282,-0.23577 0.29561,-0.24239 0.40951,-0.22204c0.02409,-0.03816 0.0583,-0.07602 0.10556,-0.11212z"/></g></g></g><g data-paper-data="{&quot;index&quot;:null}"><g stroke="#000000" stroke-width="2.5"><path d="M251.73034,166.24251c0,0 0.37382,-1.49134 0,-2.61279c-0.33436,-1.00305 -2.13774,-3.80042 -2.13774,-3.80042c0,0 -4.82884,-3.36413 -4.50429,-6.71662c0.03684,-0.38056 1.48571,-8.6683 6.28563,-13.35727c3.43077,-3.35147 10.43238,-3.70263 11.33658,-3.33724c0.69893,0.28244 5.09711,0.72703 9.16966,2.53989c5.73937,2.55483 11.05964,6.41853 11.05964,6.41853l-2.00675,13.6172l-20.88931,-0.1146l0.71258,7.36331z" fill="#949494" stroke-linecap="butt"/><path d="M282.13371,152.70351l-13.06394,-2.61279l-3.32537,-3.32537l-3.32537,-9.9761l11.16373,3.56289l8.78847,4.98805z" fill="#000000" stroke-linecap="round"/><path d="M264.79429,148.42803h1.66268" fill="none" stroke-linecap="round"/><path d="M266.21945,151.04085l-2.37526,-0.23753" fill="none" stroke-linecap="round"/><path d="M264.55676,153.41611l-1.42516,-0.23753" fill="none" stroke-linecap="round"/><path d="M279.27971,158.99068c0,0 -12.49164,-0.39597 -18.91936,0.1673c-1.58149,0.13859 -0.21237,1.97931 -1.19817,1.99021c-8.7343,0.0966 -9.63865,-1.9509 -10.4463,-2.94232c-2.00598,-2.46241 -4.19835,-5.75255 -4.09135,-6.33654c0.13759,-0.75094 1.86893,-2.51352 1.86893,-2.51352l3.92426,1.53509l5.4631,1.90021l5.70063,1.18763l9.9761,0.23753l8.07589,4.27547" fill="#373737" stroke-linecap="round"/><path d="M278.94581,161.30437l-0.9501,2.37526h-12.35136l-2.61279,-0.47505l-0.9501,-2.37526l0.47505,-1.90021l1.18763,-1.42516l1.42516,0.47505l1.18763,1.42516l0.9501,1.18763z" fill="#000000" stroke-linecap="round"/><path d="M256.00582,162.20458l-0.23753,2.61279" fill="none" stroke-linecap="round"/><path d="M260.51881,162.4421l-8.55094,-0.71258" fill="none" stroke-linecap="round"/><path d="M255.0557,140.11464l-1.18763,2.13774l0.47505,2.13774l-3.56289,-1.90021l0.23753,-4.513l3.32537,-3.80042l1.42516,1.90021l0.23753,3.32537z" fill="#151515" stroke-linecap="round"/><path d="M255.7683,143.79825l-3.32537,0.47505l-1.66268,-3.32537l0.9501,-1.42516l2.37526,-2.13774l1.90021,-0.23753l1.18763,0.9501l1.18763,1.18763l0.47505,2.61279z" fill="none" stroke-linecap="round"/></g><path d="M276.73756,142.75529c2.56859,0.75552 3.17067,2.26139 2.7603,4.07085c-0.41037,1.80946 -2.31153,2.9206 -4.24638,2.48179c-1.93484,-0.43881 -3.17067,-2.26139 -2.7603,-4.07085c0.41037,-1.80946 1.60058,-3.26001 4.24638,-2.48179z" fill="#54ff00" stroke="none" stroke-width="0" stroke-linecap="butt"/><path d="M267.13325,144.8584c-0.99389,0.11043 -1.10432,-0.88345 -1.10432,-0.88345l-0.03459,-1.38182c0.60581,-1.51114 1.15258,-2.67069 2.36411,-3.77602c0,0 0.74741,-0.66436 1.41177,0.08305c0.66436,0.74741 -0.08305,1.41177 -0.08305,1.41177c-0.99724,0.8552 -1.35583,1.82093 -1.83589,3.02398l0.16541,0.41818c0,0 0.11043,0.99389 -0.88345,1.10432z" fill="#54ff00" stroke="none" stroke-width="0.5" stroke-linecap="butt"/></g></g></g></svg>