<svg version="1.1" xmlns="http://www.w3.org/2000/svg" xmlns:xlink="http://www.w3.org/1999/xlink" width="393.43592" height="405.8489" viewBox="0,0,393.43592,405.8489"><defs><linearGradient x1="268.8882" y1="113.39741" x2="265.47244" y2="112.41812" gradientUnits="userSpaceOnUse" id="color-1"><stop offset="0" stop-color="#8aa742"/><stop offset="0.1" stop-color="#8aa742"/><stop offset="0.25" stop-color="#b7ca33"/><stop offset="0.4045" stop-color="#b7ca33"/><stop offset="1" stop-color="#8aa742"/></linearGradient><linearGradient x1="287.24858" y1="48.53303" x2="283.96544" y2="48.30368" gradientUnits="userSpaceOnUse" id="color-2"><stop offset="0" stop-color="#83b641"/><stop offset="0.2" stop-color="#b7ca33"/><stop offset="0.525" stop-color="#b7ca33"/><stop offset="1" stop-color="#8aa742"/></linearGradient><linearGradient x1="431.37648" y1="56.40395" x2="432.84434" y2="58.84683" gradientUnits="userSpaceOnUse" id="color-3"><stop offset="0" stop-color="#83b641"/><stop offset="1" stop-color="#595e48"/></linearGradient><linearGradient x1="435.15814" y1="58.29353" x2="434.23219" y2="59.39692" gradientUnits="userSpaceOnUse" id="color-4"><stop offset="0" stop-color="#8aa742"/><stop offset="1" stop-color="#595e48"/></linearGradient><linearGradient x1="436.53853" y1="59.19424" x2="436.53853" y2="61.53186" gradientUnits="userSpaceOnUse" id="color-5"><stop offset="0" stop-color="#8aa742"/><stop offset="1" stop-color="#767e47"/></linearGradient><linearGradient x1="396.28858" y1="186.68351" x2="393.08724" y2="186.45949" gradientUnits="userSpaceOnUse" id="color-6"><stop offset="0" stop-color="#767e47"/><stop offset="1" stop-color="#8aa742"/></linearGradient><linearGradient x1="397.79236" y1="186.96976" x2="395.72462" y2="189.26614" gradientUnits="userSpaceOnUse" id="color-7"><stop offset="0" stop-color="#767e47"/><stop offset="1" stop-color="#595e48"/></linearGradient><linearGradient x1="248.75203" y1="191.00176" x2="394.76489" y2="191.00176" gradientUnits="userSpaceOnUse" id="color-8"><stop offset="0" stop-color="#8aa742"/><stop offset="0.4" stop-color="#b7ca33"/><stop offset="1" stop-color="#8aa742"/></linearGradient><linearGradient x1="247.86235" y1="179.82317" x2="245.55033" y2="177.25513" gradientUnits="userSpaceOnUse" id="color-9"><stop offset="0" stop-color="#767e47"/><stop offset="0.1" stop-color="#767e47"/><stop offset="0.65" stop-color="#83b641"/><stop offset="1" stop-color="#8aa742"/></linearGradient><linearGradient x1="247.7859" y1="175.66779" x2="249.46889" y2="178.70379" gradientUnits="userSpaceOnUse" id="color-10"><stop offset="0" stop-color="#8aa742"/><stop offset="0.4045" stop-color="#83b641"/><stop offset="0.8" stop-color="#8aa742"/><stop offset="1" stop-color="#8aa742"/></linearGradient><linearGradient x1="415.06073" y1="122.16192" x2="411.65776" y2="121.18619" gradientUnits="userSpaceOnUse" id="color-11"><stop offset="0" stop-color="#595e48"/><stop offset="1" stop-color="#83b641"/></linearGradient><linearGradient x1="406.62123" y1="141.03681" x2="271.68845" y2="102.34577" gradientUnits="userSpaceOnUse" id="color-12"><stop offset="0" stop-color="#6fbc48"/><stop offset="0.3333" stop-color="#98c74f"/><stop offset="0.6666" stop-color="#80c046"/><stop offset="1" stop-color="#607d3a"/></linearGradient><linearGradient x1="43.94643" y1="303.0927" x2="186.93645" y2="303.0927" gradientUnits="userSpaceOnUse" id="color-13"><stop offset="0" stop-color="#76a5d8"/><stop offset="0.45" stop-color="#dae3ec"/><stop offset="1" stop-color="#3f87c7"/></linearGradient><linearGradient x1="202.87385" y1="261.67607" x2="67.7832" y2="222.93951" gradientUnits="userSpaceOnUse" id="color-14"><stop offset="0" stop-color="#2e499e"/><stop offset="0.4" stop-color="#4496d1"/><stop offset="0.725" stop-color="#a5cded"/><stop offset="1" stop-color="#007fc4"/></linearGradient><linearGradient x1="80.42147" y1="178.22303" x2="80.42147" y2="179.15005" gradientUnits="userSpaceOnUse" id="color-15"><stop offset="0" stop-color="#76a5d8"/><stop offset="1" stop-color="#2e499e"/></linearGradient><linearGradient x1="86.92693" y1="151.28875" x2="230.64199" y2="151.28875" gradientUnits="userSpaceOnUse" id="color-16"><stop offset="0" stop-color="#faab4f"/><stop offset="0.25" stop-color="#faab4f"/><stop offset="0.475" stop-color="#fcc193"/><stop offset="0.525" stop-color="#fcc193"/><stop offset="0.75" stop-color="#f89c3e"/><stop offset="1" stop-color="#f89c3e"/></linearGradient><linearGradient x1="246.08477" y1="110.80447" x2="110.87286" y2="72.03306" gradientUnits="userSpaceOnUse" id="color-17"><stop offset="0" stop-color="#cd2b2b"/><stop offset="0.4" stop-color="#f2692a"/><stop offset="0.725" stop-color="#fcb544"/><stop offset="1" stop-color="#f37237"/></linearGradient><linearGradient x1="356.22176" y1="337.81327" x2="355.45619" y2="340.67006" gradientUnits="userSpaceOnUse" id="color-18"><stop offset="0" stop-color="#d4a52e"/><stop offset="1" stop-color="#a87c3c"/></linearGradient><linearGradient x1="392.22209" y1="212.63815" x2="392.22209" y2="214.98965" gradientUnits="userSpaceOnUse" id="color-19"><stop offset="0.0056" stop-color="#c19236"/><stop offset="1" stop-color="#d4a52e"/></linearGradient><linearGradient x1="386.99994" y1="209.85924" x2="388.47918" y2="212.32133" gradientUnits="userSpaceOnUse" id="color-20"><stop offset="0.0056" stop-color="#ffcd02"/><stop offset="1" stop-color="#a87c3c"/></linearGradient><linearGradient x1="390.85379" y1="211.74705" x2="389.94811" y2="212.8259" gradientUnits="userSpaceOnUse" id="color-21"><stop offset="0.0056" stop-color="#ffcd02"/><stop offset="1" stop-color="#a87c3c"/></linearGradient><linearGradient x1="353.24195" y1="336.50685" x2="350.03349" y2="336.28283" gradientUnits="userSpaceOnUse" id="color-22"><stop offset="0" stop-color="#c19236"/><stop offset="1" stop-color="#ffcd02"/></linearGradient><linearGradient x1="225.60937" y1="263.21754" x2="222.25156" y2="262.25461" gradientUnits="userSpaceOnUse" id="color-23"><stop offset="0" stop-color="#d4a52e"/><stop offset="0.1" stop-color="#d4a52e"/><stop offset="0.2" stop-color="#ffc222"/><stop offset="0.35" stop-color="#ffc222"/><stop offset="1" stop-color="#d4a52e"/></linearGradient><linearGradient x1="371.2574" y1="273.76176" x2="368.07632" y2="272.84968" gradientUnits="userSpaceOnUse" id="color-24"><stop offset="0" stop-color="#a87c3c"/><stop offset="1" stop-color="#ffd200"/></linearGradient><linearGradient x1="354.57718" y1="336.1541" x2="352.97881" y2="339.74375" gradientUnits="userSpaceOnUse" id="color-25"><stop offset="0" stop-color="#c19236"/><stop offset="1" stop-color="#d4a52e"/></linearGradient><linearGradient x1="205.77153" y1="340.41723" x2="351.71363" y2="340.41723" gradientUnits="userSpaceOnUse" id="color-26"><stop offset="0" stop-color="#d4a52e"/><stop offset="0.4" stop-color="#ffd200"/><stop offset="1" stop-color="#d4a52e"/></linearGradient><linearGradient x1="204.76131" y1="329.6024" x2="202.41052" y2="326.99134" gradientUnits="userSpaceOnUse" id="color-27"><stop offset="0" stop-color="#d4a52e"/><stop offset="0.1" stop-color="#d4a52e"/><stop offset="0.7" stop-color="#ffd200"/><stop offset="1" stop-color="#d4a52e"/></linearGradient><linearGradient x1="204.83029" y1="325.21945" x2="206.49373" y2="328.2206" gradientUnits="userSpaceOnUse" id="color-28"><stop offset="0" stop-color="#d4a52e"/><stop offset="0.4" stop-color="#ffc222"/><stop offset="0.8" stop-color="#ffcd02"/><stop offset="1" stop-color="#d4a52e"/></linearGradient><linearGradient x1="363.68731" y1="290.45017" x2="228.45229" y2="251.67199" gradientUnits="userSpaceOnUse" id="color-29"><stop offset="0" stop-color="#ffc907"/><stop offset="0.1667" stop-color="#ffd200"/><stop offset="0.3333" stop-color="#ffd952"/><stop offset="0.625" stop-color="#ffcd02"/><stop offset="1" stop-color="#b77a36"/></linearGradient><linearGradient x1="243.81684" y1="199.01775" x2="240.4761" y2="198.78413" gradientUnits="userSpaceOnUse" id="color-30"><stop offset="0" stop-color="#ffc222"/><stop offset="0.2" stop-color="#ffc222"/><stop offset="0.525" stop-color="#ffd200"/><stop offset="1" stop-color="#d4a52e"/></linearGradient><linearGradient x1="-13761.28466" y1="-8261.38954" x2="-13761.28466" y2="-8261.38954" gradientUnits="userSpaceOnUse" id="color-31"><stop offset="0" stop-color="#7e9ec4"/><stop offset="1" stop-color="#151d89"/></linearGradient><linearGradient x1="-13702.61282" y1="-8328.06208" x2="-13702.61282" y2="-8328.06208" gradientUnits="userSpaceOnUse" id="color-32"><stop offset="0" stop-color="#7e9ec4"/><stop offset="1" stop-color="#151d89"/></linearGradient><linearGradient x1="-14241.86033" y1="-8267.61231" x2="-14241.86033" y2="-8267.61231" gradientUnits="userSpaceOnUse" id="color-33"><stop offset="0" stop-color="#7e9ec4"/><stop offset="1" stop-color="#151d89"/></linearGradient><linearGradient x1="-14183.18849" y1="-8334.28485" x2="-14183.18849" y2="-8334.28485" gradientUnits="userSpaceOnUse" id="color-34"><stop offset="0" stop-color="#7e9ec4"/><stop offset="1" stop-color="#151d89"/></linearGradient><linearGradient x1="-13716.8363" y1="-8483.27576" x2="-13716.8363" y2="-8483.27576" gradientUnits="userSpaceOnUse" id="color-35"><stop offset="0" stop-color="#7e9ec4"/><stop offset="1" stop-color="#151d89"/></linearGradient><linearGradient x1="-13658.52005" y1="-8549.9483" x2="-13658.52005" y2="-8549.9483" gradientUnits="userSpaceOnUse" id="color-36"><stop offset="0" stop-color="#7e9ec4"/><stop offset="1" stop-color="#151d89"/></linearGradient><linearGradient x1="-13716.8363" y1="-8188.84982" x2="-13716.8363" y2="-8188.84982" gradientUnits="userSpaceOnUse" id="color-37"><stop offset="0" stop-color="#7e9ec4"/><stop offset="1" stop-color="#151d89"/></linearGradient><linearGradient x1="-13658.52005" y1="-8255.52237" x2="-13658.52005" y2="-8255.52237" gradientUnits="userSpaceOnUse" id="color-38"><stop offset="0" stop-color="#7e9ec4"/><stop offset="1" stop-color="#151d89"/></linearGradient><linearGradient x1="-14197.41197" y1="-8194.717" x2="-14197.41197" y2="-8194.717" gradientUnits="userSpaceOnUse" id="color-39"><stop offset="0" stop-color="#7e9ec4"/><stop offset="1" stop-color="#151d89"/></linearGradient><linearGradient x1="-14138.74013" y1="-8261.38954" x2="-14138.74013" y2="-8261.38954" gradientUnits="userSpaceOnUse" id="color-40"><stop offset="0" stop-color="#7e9ec4"/><stop offset="1" stop-color="#151d89"/></linearGradient></defs><g transform="translate(-43.51985,48.75955)"><g data-paper-data="{&quot;isPaintingLayer&quot;:true}" fill-rule="nonzero" stroke-linejoin="miter" stroke-miterlimit="10" stroke-dasharray="" stroke-dashoffset="0" style="mix-blend-mode: normal"><path d="M133.63042,311.95178" fill="none" stroke="none" stroke-width="0.63873" stroke-linecap="butt"/><path d="M430.55507,57.60618c-74.94136,30.98869 -110.98791,13.62502 -143.45975,-8.23113c0.07503,-0.28625 0.20873,-0.84025 -0.00925,-1.37185c32.47184,21.86077 69.24094,39.45379 144.17768,8.46937c-0.49747,0.45657 -0.49747,0.68379 -0.70868,1.13361z" fill="#83b641" stroke="none" stroke-width="0.63873" stroke-linecap="butt"/><path d="M284.04723,49.00489l-36.60091,127.14116l-2.82087,2.23273l0.00249,-0.293l36.74386,-127.16854l2.67544,-1.91235" fill="#8aa742" stroke="none" stroke-width="0.63873" stroke-linecap="butt"/><path d="M250.20354,177.56555c-1.14001,-0.63828 -1.96213,-1.92373 -2.9752,-1.52618l36.69159,-126.97759c0.56325,-0.25211 1.98275,-0.7382 3.32296,0.31789z" fill="url(#color-1)" stroke="none" stroke-width="0.63873" stroke-linecap="butt"/><path d="M284.3925,48.18064l-0.37692,0.90817l-2.67579,1.93297c0.22722,-0.86763 2.26687,-2.31452 2.8959,-2.7526c0.11805,-0.08178 0.15681,-0.08854 0.15681,-0.08854z" fill="#8aa742" stroke="none" stroke-width="0.63873" stroke-linecap="butt"/><path d="M287.11559,49.28901c-1.3875,-0.85625 -2.63917,-0.44093 -3.20704,-0.19557c0.0889,-0.27025 0.32963,-0.82425 0.32963,-0.82425c1.2058,-0.76309 1.73064,-0.79971 2.85714,-0.26136c0.14544,0.4203 0.2066,0.82461 0.02027,1.28118z" fill="url(#color-2)" stroke="none" stroke-width="0.63873" stroke-linecap="butt"/><path d="M433.33505,58.55098c0,0 -0.83812,-1.15601 -2.84363,-0.78585c0.17744,-0.47471 0.17744,-0.9199 0.77233,-1.29469c1.20615,-0.1817 1.79216,0.13619 2.04854,0.38368c0.1433,0.14117 0.18633,0.25673 0.18633,0.25673c0.16144,0.70868 -0.16357,1.44013 -0.16357,1.44013z" fill="url(#color-3)" stroke="none" stroke-width="0.63873" stroke-linecap="butt"/><path d="M433.31478,56.85412l2.96382,2.37817c0.17708,0.79509 -0.20446,1.60121 -0.20446,1.60121l-2.97306,-2.38705c0,0 0.37266,-0.88577 0.21371,-1.59232z" fill="url(#color-4)" stroke="none" stroke-width="0.63873" stroke-linecap="butt"/><path d="M436.18792,60.68343l-37.26195,127.75917l-2.81163,-2.48271l37.04824,-127.68165l3.02533,2.40519" fill="#595e48" stroke="none" stroke-width="0.63873" stroke-linecap="butt"/><path d="M399.65279,189.36677c0.07965,-0.72895 -0.69731,-1.33096 -0.69731,-1.33096l37.19368,-127.46794c0,0 0.59063,0.53125 0.74958,0.91528z" fill="#767e47" stroke="none" stroke-width="0.63873" stroke-linecap="butt"/><path d="M436.88949,61.5308c0,0 -0.13406,-0.36554 -0.76771,-0.89928c0.28874,-1.19939 0.09779,-1.44013 0.09779,-1.44013l0.05689,0.03876c0,0.00213 0.93128,0.84914 0.61303,2.30065z" fill="url(#color-5)" stroke="none" stroke-width="0.63873" stroke-linecap="butt"/><path d="M398.41037,190.55692c-20.02772,9.09413 -38.98335,13.78646 -56.58525,15.32188c-30.39592,3.45204 -54.97515,-3.15939 -75.05728,-13.02337c-7.80869,-3.58396 -14.87882,-7.6405 -21.13395,-11.85349l0.33852,-0.293c6.34118,4.26775 13.25272,8.43772 20.79294,12.14649c20.405,9.369 45.86751,15.55337 75.05728,13.02337c16.62546,-1.8807 34.99082,-6.78638 55.31581,-15.80121c0.57249,0.4612 1.27193,0.47933 1.27193,0.47933z" fill="#595e48" stroke="none" stroke-width="0.63873" stroke-linecap="butt"/><path d="M394.36521,188.18587c0,0 -1.43302,-1.28545 -1.17166,-3.16828c1.92586,-0.49284 3.15903,0.72682 3.15903,0.72682c0,0 -0.35416,1.73277 -1.98738,2.44146z" fill="url(#color-6)" stroke="none" stroke-width="0.63873" stroke-linecap="butt"/><path d="M396.35259,185.74654l2.69393,2.35078c0,0 -0.41355,1.47391 -2.04889,2.19184l-2.7366,-2.34403c1.63961,-0.71793 2.09156,-2.19859 2.09156,-2.19859z" fill="url(#color-7)" stroke="none" stroke-width="0.63873" stroke-linecap="butt"/><path d="M393.63875,184.97883c-0.26136,1.88532 1.1265,3.26144 1.1265,3.26144c-74.95523,30.99082 -113.57054,12.74174 -146.01286,-9.23459c0.57001,-0.41817 0.65855,-0.41355 1.02871,-1.73526c32.4377,21.98096 81.46922,37.38214 143.85765,7.70841z" fill="url(#color-8)" stroke="none" stroke-width="0.63873" stroke-linecap="butt"/><path d="M245.98841,180.84051l2.78673,-1.86221c32.45584,20.89535 70.79201,38.96734 145.66759,8.88043l2.70957,2.35292c-71.89149,31.71551 -117.88381,14.05208 -151.1639,-9.37114z" fill="#767e47" stroke="none" stroke-width="0.63873" stroke-linecap="butt"/><path d="M399.65279,189.36677c-0.3723,0.68379 -1.02445,1.07423 -1.24242,1.18802c-0.04552,0.02702 -0.07503,0.02702 -0.07503,0.02702c0,0 -0.51098,0.07041 -1.19228,-0.3723c1.46502,-0.79936 1.88959,-2.3963 1.88959,-2.3963c0,0 0.85199,0.71117 0.62014,1.55356z" fill="#767e47" stroke="none" stroke-width="0.63873" stroke-linecap="butt"/><path d="M246.09046,180.80424l-0.3339,0.27487c0,0 -1.82594,-0.98569 -1.1265,-2.99333c0.16357,1.97351 1.4604,2.71846 1.4604,2.71846z" fill="#767e47" stroke="none" stroke-width="0.63873" stroke-linecap="butt"/><path d="M244.62793,178.08578l2.68895,-2.12605c-0.15681,2.04889 1.61508,2.90052 1.61508,2.90052l-2.73482,2.10294c0,0 -1.72389,-0.82425 -1.5692,-2.87741z" fill="url(#color-9)" stroke="none" stroke-width="0.63873" stroke-linecap="butt"/><path d="M247.25785,175.95972c0.9199,-0.27914 1.75127,0.67455 2.87776,1.54894c-0.3659,1.32669 -0.68842,1.09947 -1.25842,1.52191c-0.66779,-0.39968 -1.78967,-1.38537 -1.61934,-3.07085z" fill="url(#color-10)" stroke="none" stroke-width="0.63873" stroke-linecap="butt"/><path d="M393.28423,185.26721l37.09376,-127.618c2.00551,-0.37017 2.96382,0.76558 2.96382,0.76558l-36.98673,127.33175c-0.00249,0 -1.48315,-1.13574 -3.07085,-0.47933z" fill="url(#color-11)" stroke="none" stroke-width="0.63873" stroke-linecap="butt"/><path d="M393.64764,185.38313c-71.90038,32.18772 -111.0697,14.11573 -143.51451,-7.86523l36.97108,-128.23814c32.47646,21.85615 68.5095,39.27422 143.45086,8.2898z" fill="url(#color-12)" stroke="none" stroke-width="0.63873" stroke-linecap="butt"/><path d="M46.61084,310.25741c0.24535,0.03663 0.69731,-0.17708 0.69731,-0.17708c0.51987,0.35452 0.93342,0.60414 0.93342,0.60414c0,0 -0.81323,0.19308 -1.63072,-0.42706z" fill="#313c7e" stroke="none" stroke-width="0.63873" stroke-linecap="butt"/><path d="M185.63251,316.82156c0,0 0.49747,0.46084 1.06996,0.30189l-2.24624,1.33096c-0.71793,0.32038 -1.45577,-0.18633 -1.45577,-0.18633z" fill="#313c7e" stroke="none" stroke-width="0.63873" stroke-linecap="butt"/><path d="M47.33766,310.09634c0,0 -0.43844,0.2226 -0.68593,0.18633l-2.46457,-1.8807l-0.05654,-0.05227c0.35665,0.12481 0.76771,0.06152 0.93342,0.02738z" fill="#313c7e" stroke="none" stroke-width="0.63873" stroke-linecap="butt"/><path d="M186.89307,314.98636c0.25673,0.18597 0.52698,0.39043 0.78158,0.9039c-0.1433,0.67455 -0.70655,1.01982 -1.02445,1.26945c-0.45871,0.10703 -1.10161,-0.32927 -1.10161,-0.32927c0.35879,-0.30189 0.97217,-0.73571 1.34447,-1.84407z" fill="#2e499e" stroke="none" stroke-width="0.63873" stroke-linecap="butt"/><path d="M80.05236,179.10987h0.73571v0.04089h-0.73571z" fill="#2e499e" stroke="none" stroke-width="0.63873" stroke-linecap="butt"/><path d="M43.99195,306.74387l-0.41781,-0.10668l36.48286,-127.62476l0.41106,0.11557l-36.4761,127.61587" fill="#2e499e" stroke="none" stroke-width="0.63873" stroke-linecap="butt"/><path d="M44.18716,308.40197c-0.47222,-0.40892 -0.79936,-1.10836 -0.61517,-1.76478l0.43808,-0.16819c-0.18384,0.94942 0.51347,1.63321 1.02231,1.92621c0.00427,-0.00249 -0.36803,0.18384 -0.84523,0.00676z" fill="#2e499e" stroke="none" stroke-width="0.63873" stroke-linecap="butt"/><path d="M185.61011,316.9101c-32.55149,-21.90593 -66.28602,-38.63807 -140.53007,-8.47186c-0.51098,-0.30189 -1.28794,-1.02871 -1.10623,-1.98738c75.38655,-32.08994 110.41115,-13.3434 142.96264,8.56964c-0.33176,1.16277 -0.96755,1.59659 -1.32634,1.88959z" fill="url(#color-13)" stroke="none" stroke-width="0.63873" stroke-linecap="butt"/><path d="M47.18974,309.99854c71.46194,-27.93846 103.49321,-12.72325 136.0287,8.22437c-19.48723,-12.54404 -39.54233,-22.58759 -67.21481,-22.75792c-18.51968,-0.10668 -40.40747,4.59489 -67.79833,15.21485c0,0.00249 -0.56574,-0.21122 -1.01556,-0.6813z" fill="#313c7e" stroke="none" stroke-width="0.63873" stroke-linecap="butt"/><path d="M185.64851,316.90085l-2.63241,1.37399c-32.53513,-20.94727 -65.46355,-35.42641 -135.67631,-8.18063l-2.32127,-1.69437c74.24441,-30.17119 108.08099,-13.41167 140.62999,8.50102z" fill="#2e499e" stroke="none" stroke-width="0.63873" stroke-linecap="butt"/><path d="M186.87031,315.05678l37.53682,-128.47674c0.40181,0.27949 0.61552,0.49747 0.82425,0.73606l-37.5706,128.63533c-0.21122,-0.54049 -0.79047,-0.89466 -0.79047,-0.89466z" fill="#313c7e" stroke="none" stroke-width="0.63873" stroke-linecap="butt"/><path d="M224.39113,186.64155c-32.51949,-22.03999 -69.19756,-37.99339 -144.00273,-7.46128c0.18633,-0.63792 0.33852,-0.94017 0.33852,-0.94017c75.13444,-31.06585 111.41746,-14.57231 143.93446,7.47017z" fill="#3f87c7" stroke="none" stroke-width="0.63873" stroke-linecap="butt"/><path d="M186.92969,315.36792c-32.549,-21.90593 -67.93274,-39.92387 -143.05118,-8.86229l36.78262,-128.47674c75.13444,-31.06585 111.22864,-13.4867 143.746,8.55329z" fill="url(#color-14)" stroke="none" stroke-width="0.63873" stroke-linecap="butt"/><path d="M186.92969,315.36792c-32.549,-21.90593 -67.93274,-39.92387 -143.05118,-8.86229l36.78262,-128.47674c75.13444,-31.06585 111.22864,-13.4867 143.746,8.55329z" fill="none" stroke="none" stroke-width="0.63873" stroke-linecap="butt"/><path d="M224.65,185.70103l0.06152,0.03627c0.46333,0.32963 0.65179,0.96755 0.51987,1.57881l-0.02702,0.0793c-0.2066,-0.23611 -0.42244,-0.46084 -0.82212,-0.74033z" fill="#313c7e" stroke="none" stroke-width="0.63873" stroke-linecap="butt"/><path d="M80.46343,179.15076l-0.41106,-0.12019c0.15681,-0.54049 0.52698,-0.72682 0.67455,-0.79047l0.06116,-0.01813c0.00249,0 -0.13619,0.28376 -0.32465,0.92879z" fill="url(#color-15)" stroke="none" stroke-width="0.63873" stroke-linecap="butt"/><path d="M226.84183,166.2618c-30.51611,-20.10062 -66.80589,-35.48793 -136.36686,-7.05911l-2.6029,-1.83732c63.66036,-31.63621 106.52743,-16.39398 141.49976,7.87661z" fill="#d75329" stroke="none" stroke-width="0.63873" stroke-linecap="butt"/><path d="M230.59861,163.35915l36.95259,-127.58422c0.40004,0.27274 0.59525,0.53623 0.80647,0.77233l-36.96895,127.69303c-0.21122,-0.53587 -0.79011,-0.88114 -0.79011,-0.88114z" fill="#ab4533" stroke="none" stroke-width="0.63873" stroke-linecap="butt"/><path d="M90.49773,159.1618c11.83749,-4.85589 22.80094,-8.46048 32.97357,-10.93359c2.46671,-0.59739 4.65854,-1.13788 7.26108,-1.63997c2.3963,-0.47684 4.76273,-0.94266 7.07725,-1.28331c3.62734,-0.554 7.14516,-1.01058 10.57018,-1.27407c2.93004,-0.23149 5.78042,-0.40217 8.57178,-0.42706c2.69819,-0.03165 5.33523,0.00462 7.91074,0.15219c2.29389,0.13192 4.538,0.29763 6.74762,0.55863c1.86719,0.21833 3.69313,0.44768 5.4988,0.75882c3.81331,0.65392 7.49719,1.45791 11.05875,2.46884c14.38136,4.06756 27.15475,11.00186 38.89907,18.83295c-0.07716,0.03627 -0.35879,-0.08178 -0.48146,-0.14757c-0.11343,-0.05476 -0.1657,-0.05903 -0.26562,-0.1273c-15.87802,-10.06595 -32.9373,-18.81944 -53.98698,-21.40171c-21.54501,-2.64841 -46.65122,1.06072 -80.47678,14.4859c0,0 -0.78798,0.3339 -1.08774,0.3883c-0.27025,0.04303 -0.22046,-0.16357 -0.27025,-0.41106z" fill="#ab4533" stroke="none" stroke-width="0.63873" stroke-linecap="butt"/><path d="M229.31281,165.21922c0,0 0.50209,0.35203 1.06996,0.2226l-2.33265,1.02871c-0.62903,0.18419 -1.37648,-0.20446 -1.37648,-0.20446z" fill="#ab4533" stroke="none" stroke-width="0.63873" stroke-linecap="butt"/><path d="M90.52938,159.18455c0,0 0.1433,0.2386 0.2386,0.39292c-0.22935,0.03165 -0.25673,0.09067 -0.82212,-0.16144c-0.07503,-0.02951 -0.18846,-0.12268 -0.28162,-0.16357l-2.41443,-1.89848l-0.21797,-0.17957c0.32927,-0.02276 0.58138,0.13619 0.74709,0.10454z" fill="#ab4533" stroke="none" stroke-width="0.63873" stroke-linecap="butt"/><path d="M230.6235,163.36341c0.25887,0.17282 0.56787,0.27487 0.78336,0.81109c-0.14295,0.67882 -0.71971,1.01982 -1.04223,1.26945c-0.57249,0.16144 -1.13788,-0.27914 -1.13788,-0.27914c0.36092,-0.28874 1.02409,-0.69731 1.39675,-1.8014z" fill="#d75329" stroke="none" stroke-width="0.63873" stroke-linecap="butt"/><path d="M267.79904,34.94605l0.04516,0.02738c0.45657,0.32678 0.64752,0.96755 0.5156,1.57383l-0.02276,0.08178c-0.21335,-0.2386 -0.34954,-0.47471 -0.76771,-0.79047z" fill="#d75329" stroke="none" stroke-width="0.63873" stroke-linecap="butt"/><path d="M87.08161,157.2427c-0.34954,-0.27487 -0.70157,-1.3491 -0.51987,-2.00338l0.49035,-0.17033c-0.1817,0.94728 0.4043,2.02613 0.91315,2.31914c0.00213,0 -0.35665,0.20197 -0.88363,-0.14544z" fill="#d75329" stroke="none" stroke-width="0.63873" stroke-linecap="butt"/><path d="M123.5826,26.41304h0.7382v0.0544h-0.7382z" fill="#faaa4f" stroke="none" stroke-width="0.63873" stroke-linecap="butt"/><path d="M123.5826,26.46744h0.7382v0.06152h-0.7382z" fill="#f6a34c" stroke="none" stroke-width="0.63873" stroke-linecap="butt"/><path d="M123.5826,26.52896h0.7382v0.0544h-0.7382z" fill="#f39d48" stroke="none" stroke-width="0.63873" stroke-linecap="butt"/><path d="M123.5826,26.5855h0.7382v0.06152h-0.7382z" fill="#f09745" stroke="none" stroke-width="0.63873" stroke-linecap="butt"/><path d="M123.5826,26.64701h0.7382v0.05689h-0.7382z" fill="#ed9142" stroke="none" stroke-width="0.63873" stroke-linecap="butt"/><path d="M123.5826,26.70391h0.7382v0.0544h-0.7382z" fill="#eb8c3f" stroke="none" stroke-width="0.63873" stroke-linecap="butt"/><path d="M123.5826,26.76044h0.7382v0.05689h-0.7382z" fill="#e8863c" stroke="none" stroke-width="0.63873" stroke-linecap="butt"/><path d="M123.5826,26.81734h0.7382v0.0544h-0.7382z" fill="#e68139" stroke="none" stroke-width="0.63873" stroke-linecap="butt"/><path d="M123.5826,26.87423h0.7382v0.05654h-0.7382z" fill="#e57b37" stroke="none" stroke-width="0.63873" stroke-linecap="butt"/><path d="M123.5826,26.93077h0.7382v0.05689h-0.7382z" fill="#e27634" stroke="none" stroke-width="0.63873" stroke-linecap="butt"/><path d="M123.5826,26.98766h0.7382v0.05903h-0.7382z" fill="#e07132" stroke="none" stroke-width="0.63873" stroke-linecap="butt"/><path d="M123.5826,27.04883h0.7382v0.05689h-0.7382z" fill="#df6b30" stroke="none" stroke-width="0.63873" stroke-linecap="butt"/><path d="M123.5826,27.10572h0.7382v0.0544h-0.7382z" fill="#dc662e" stroke="none" stroke-width="0.63873" stroke-linecap="butt"/><path d="M123.5826,27.16261h0.7382v0.06116h-0.7382z" fill="#db602c" stroke="none" stroke-width="0.63873" stroke-linecap="butt"/><path d="M123.5826,27.22377h0.7382v0.0544h-0.7382z" fill="#d95a2a" stroke="none" stroke-width="0.63873" stroke-linecap="butt"/><path d="M123.5826,27.27818h0.7382v0.06152h-0.7382z" fill="#d75329" stroke="none" stroke-width="0.63873" stroke-linecap="butt"/><path d="M229.30392,165.22811c-20.01883,-13.08666 -38.75861,-23.92033 -68.43234,-24.77445c-21.69933,0.42919 -38.33369,3.19353 -72.93585,16.9366c-0.51098,-0.29087 -1.15815,-1.0152 -0.97893,-1.96675c29.95997,-12.75775 53.74411,-18.26081 73.48345,-18.06773c29.88921,0.29763 50.60961,12.80291 70.20138,25.98273c-0.33176,1.15388 -0.9768,1.59659 -1.33772,1.88959z" fill="url(#color-16)" stroke="none" stroke-width="0.63873" stroke-linecap="butt"/><path d="M123.59398,27.20102l0.34314,0.10917l-36.89641,128.06995c-0.08392,-0.03627 -0.47684,-0.14081 -0.47684,-0.14081z" fill="#d75329" stroke="none" stroke-width="0.63873" stroke-linecap="butt"/><path d="M267.55831,35.9225c-32.49709,-22.01936 -68.90456,-39.02175 -143.65781,-8.51239c0.19095,-0.64041 0.35914,-0.98106 0.35914,-0.98106c75.0843,-31.04096 111.07894,-13.48457 143.58243,8.5444z" fill="#f89c3e" stroke="none" stroke-width="0.63873" stroke-linecap="butt"/><path d="M230.65301,163.38617c-19.59639,-13.19583 -40.67096,-25.51265 -70.60106,-25.73987c-19.74858,-0.15219 -43.25572,5.4579 -73.09728,17.79748l36.98246,-128.14711c75.0843,-31.04558 111.14935,-13.47532 143.64359,8.54866z" fill="url(#color-17)" stroke="none" stroke-width="0.63873" stroke-linecap="butt"/><path d="M356.93543,339.40203c-0.36341,0.67455 -1.01982,1.07423 -1.2378,1.18766c-0.04765,0.02738 -0.0793,0.02738 -0.0793,0.02738c0,0 -0.62477,0.07965 -1.19264,-0.3723c1.46502,-0.79971 1.89883,-2.40555 1.89883,-2.40555c0,0 0.84487,0.72006 0.6109,1.5628z" fill="url(#color-18)" stroke="none" stroke-width="0.63873" stroke-linecap="butt"/><path d="M356.93543,339.40203c0.08854,-0.72682 -0.69268,-1.34021 -0.69268,-1.34021l35.58571,-124.03866c0,0 0.5949,0.52271 0.75847,0.91315z" fill="#d4a52e" stroke="none" stroke-width="0.63873" stroke-linecap="butt"/><path d="M392.56417,214.98858c0,0 -0.11557,-0.35416 -0.75384,-0.8879c0.293,-1.20615 0.08854,-1.46502 0.08854,-1.46502l0.05689,0.03627c0.00213,0.00213 0.93804,0.86301 0.60841,2.31665z" fill="url(#color-19)" stroke="none" stroke-width="0.63873" stroke-linecap="butt"/><path d="M389.01648,211.99952c0,0 -0.98569,-1.19691 -2.98871,-0.82425c0.10668,-0.45195 0.27487,-1.00169 0.91315,-1.26056c1.21042,-0.18633 1.7918,0.13406 2.04854,0.38154c0.14544,0.15006 0.18633,0.25673 0.18633,0.25673c0.15895,0.71082 -0.1593,1.44653 -0.1593,1.44653z" fill="url(#color-20)" stroke="none" stroke-width="0.63873" stroke-linecap="butt"/><path d="M388.98945,210.29626l2.96844,2.37781c0.17246,0.80647 -0.14544,1.60583 -0.14544,1.60583l-2.95493,-2.36892c-0.00213,0 0.29087,-0.90604 0.13192,-1.61472z" fill="url(#color-21)" stroke="none" stroke-width="0.63873" stroke-linecap="butt"/><path d="M388.84402,211.72501l3.02071,2.41195l-35.54233,123.99528l-0.14081,0.33852l-3.1185,-2.68895l35.78093,-124.0568" fill="#a87c3c" stroke="none" stroke-width="0.63873" stroke-linecap="butt"/><path d="M351.30969,338.00742c0,0 -1.42875,-1.27869 -1.17201,-3.16828c1.92621,-0.48822 3.16828,0.72682 3.16828,0.72682c0,0 -0.35416,1.72389 -1.99626,2.44146z" fill="url(#color-22)" stroke="none" stroke-width="0.63873" stroke-linecap="butt"/><path d="M386.15045,211.29795c-75.35028,25.66697 -110.02072,10.32731 -142.52882,-11.5516c0.07716,-0.293 0.277,-0.77233 0.05689,-1.31283c32.50811,21.87891 68.4615,36.81889 143.25991,11.48119c-0.56538,0.39079 -0.63828,0.92204 -0.78798,1.38323z" fill="#ffcd02" stroke="none" stroke-width="0.63873" stroke-linecap="butt"/><path d="M240.61442,199.39219l-36.38721,126.56866l-2.82549,2.23486l0.00676,-0.30189l36.533,-126.55764l2.67295,-1.94399" fill="#d4a52e" stroke="none" stroke-width="0.63873" stroke-linecap="butt"/><path d="M207.32296,326.56286c-1.06072,-0.62939 -2.29638,-1.10836 -3.30909,-0.70193l36.4825,-126.41647c0.56787,-0.2386 1.91697,-0.61339 3.3002,0.35416z" fill="url(#color-23)" stroke="none" stroke-width="0.63873" stroke-linecap="butt"/><path d="M350.2287,335.09801l35.78982,-123.96826c0.06614,-0.01813 0.15468,-0.10668 0.21371,-0.11592c1.9031,-0.19522 2.78673,0.81536 2.78673,0.81536l-35.69239,123.77304c-0.00213,0.00213 -1.51053,-1.16988 -3.09787,-0.50422z" fill="url(#color-24)" stroke="none" stroke-width="0.63873" stroke-linecap="butt"/><path d="M355.69763,340.58969c-73.57875,31.45202 -120.77473,12.11022 -153.28284,-9.77757l0.34065,-0.28376c32.50811,21.87855 82.5342,40.1006 151.66812,9.58236c0.57249,0.45195 1.27407,0.47898 1.27407,0.47898z" fill="#a87c3c" stroke="none" stroke-width="0.63873" stroke-linecap="butt"/><path d="M353.30169,335.58623l3.0296,2.546c0,0 -0.40857,1.47177 -2.04854,2.19184l-3.0776,-2.55525c1.63997,-0.71757 2.09654,-2.18259 2.09654,-2.18259z" fill="url(#color-25)" stroke="none" stroke-width="0.63873" stroke-linecap="butt"/><path d="M350.58287,334.80501c-0.25673,1.88959 1.13112,3.25682 1.13112,3.25682c-75.03452,31.0342 -113.46386,12.43061 -145.94246,-9.58236c0.57249,-0.41781 0.85199,-0.78122 1.21753,-2.09405c0.04765,0.02738 0.50173,-0.04516 0.54725,-0.01813c33.5258,20.64573 76.43589,36.96219 143.04656,8.43772z" fill="url(#color-26)" stroke="none" stroke-width="0.63873" stroke-linecap="butt"/><path d="M202.76896,330.65317l3.00258,-2.1737c29.79178,18.5787 71.54621,38.93143 145.61781,9.21006l3.0616,2.55525c-68.84802,30.49335 -119.17388,12.29619 -151.68199,-9.5916z" fill="#c19236" stroke="none" stroke-width="0.63873" stroke-linecap="butt"/><path d="M203.02356,330.75095l-0.34065,0.23824c0,0 -1.976,-1.08987 -1.27442,-3.09538c0.16144,1.97813 1.61508,2.85714 1.61508,2.85714z" fill="#d4a52e" stroke="none" stroke-width="0.63873" stroke-linecap="butt"/><path d="M201.40848,327.89382l2.82087,-2.30776c-0.15432,2.06667 1.84656,2.83012 1.84656,2.83012l-3.09787,2.36892c0.00213,0.00213 -1.72602,-0.83136 -1.56956,-2.89128z" fill="url(#color-27)" stroke="none" stroke-width="0.63873" stroke-linecap="butt"/><path d="M204.02062,325.66785c1.01058,-0.40892 1.95786,0.07041 3.02284,0.69268c-0.37017,1.32207 -0.59276,1.78291 -1.16526,2.20073c-0.66744,-0.39968 -2.02791,-1.21717 -1.85759,-2.89341z" fill="url(#color-28)" stroke="none" stroke-width="0.63873" stroke-linecap="butt"/><path d="M243.90325,198.94024c32.50811,21.8878 68.61831,39.32151 143.63932,8.31255l-36.97784,127.72041c-75.03452,31.03385 -111.07005,13.45932 -143.54402,-8.56253z" fill="url(#color-29)" stroke="none" stroke-width="0.63873" stroke-linecap="butt"/><path d="M243.90325,198.94024c32.50811,21.8878 68.61831,39.32151 143.63932,8.31255l-36.97784,127.72041c-75.03452,31.03385 -111.07005,13.45932 -143.54402,-8.56253z" fill="none" stroke="none" stroke-width="0.63873" stroke-linecap="butt"/><path d="M240.96646,198.59496l-0.38581,0.9039l-2.67579,1.9351c0.17282,-0.80647 2.23486,-2.29851 2.87101,-2.74157c0.08392,-0.06329 0.19059,-0.09743 0.19059,-0.09743z" fill="#ffcd02" stroke="none" stroke-width="0.63873" stroke-linecap="butt"/><path d="M243.69203,199.7396c-1.49204,-0.86977 -2.70957,-0.34527 -3.27744,-0.09779c0.08854,-0.27487 0.39541,-0.96755 0.39541,-0.96755c1.20828,-0.77198 1.75767,-0.77198 2.88665,-0.23149c0.21797,0.53374 0.07503,0.95831 -0.00462,1.29683z" fill="url(#color-30)" stroke="none" stroke-width="0.63873" stroke-linecap="butt"/><path d="" fill="url(#color-31)" stroke="none" stroke-width="1" stroke-linecap="butt"/><path d="" fill="url(#color-32)" stroke="none" stroke-width="1" stroke-linecap="butt"/><path d="" fill="url(#color-33)" stroke="none" stroke-width="1" stroke-linecap="butt"/><path d="" fill="url(#color-34)" stroke="none" stroke-width="1" stroke-linecap="butt"/><path d="" fill="url(#color-35)" stroke="none" stroke-width="1" stroke-linecap="butt"/><path d="" fill="url(#color-36)" stroke="none" stroke-width="1" stroke-linecap="butt"/><path d="" fill="url(#color-37)" stroke="none" stroke-width="1" stroke-linecap="butt"/><path d="" fill="url(#color-38)" stroke="none" stroke-width="1" stroke-linecap="butt"/><path d="" fill="url(#color-39)" stroke="none" stroke-width="1" stroke-linecap="butt"/><path d="" fill="url(#color-40)" stroke="none" stroke-width="1" stroke-linecap="butt"/><path d="M302.58355,122.31654c3.82052,-2.46266 15.2556,-19.43611 21.59834,-6.03498c6.34078,13.39727 -12.80768,20.98873 -19.60419,22.94612c-6.79461,1.94963 -8.5645,-4.14606 -12.07558,-8.31437c-6.51534,-7.74587 -13.13847,-12.49632 -9.69415,-22.28256c3.43656,-9.7862 11.32129,-2.67301 14.83099,2.01674c2.8386,3.79546 6.01998,7.92851 7.13375,9.37508" fill="#faa51d" stroke="#231f20" stroke-width="1.2" stroke-linecap="butt"/><g stroke-width="1" stroke-linecap="butt"><path d="M312.84379,137.37074c1.56818,0.91494 4.75107,2.56647 0.17446,9.19587c-4.57855,6.6294 -17.96529,7.84867 -19.53735,7.89713c-5.99554,0.16283 -13.39256,0.15314 -21.49904,-2.54321c-23.52275,-7.8099 -23.66619,-33.15864 -16.19164,-37.20607c7.47068,-4.04549 10.84741,11.6441 21.41568,21.15594c4.72587,4.2529 10.32597,5.91606 15.00726,6.79029c6.62165,1.23671 19.0605,-6.20489 20.63062,-5.28995z" fill="#faa51d" stroke="#000000"/><path d="M265.24003,121.84204c3.21972,4.66966 8.85859,12.39815 8.85859,12.39815c0,0 -7.09075,-1.60889 -11.11297,1.77172c-4.03386,3.38836 0.32372,10.05653 -2.63819,8.04445c-2.38232,-2.66727 -5.55358,-5.63693 -7.48812,-12.40202c-1.93648,-6.75734 0.16864,-15.25732 4.02416,-16.44557c4.11527,-0.97309 5.30934,2.15359 8.35654,6.63328z" fill="#ffffff" stroke="none"/></g><g stroke-linecap="butt"><path d="M322.75301,157.61949c0,0 -17.12014,12.01822 -33.0908,16.306l0.1667,0.41676c2.41721,3.53568 11.37854,14.53235 -0.64743,18.40725c-10.3376,3.32827 -29.30894,-25.40108 -20.97566,-30.82478c5.0903,-3.32052 9.48276,-0.48848 9.48276,-0.48848c0,0 6.73408,-2.07411 11.63247,-4.5456c8.34103,-4.18893 11.21183,-6.69337 11.21183,-6.69337c0,0 8.11036,-8.34684 13.28982,-8.01925c5.17752,0.32953 15.62174,9.13772 8.93031,15.44147z" fill="#faa51d" stroke="none" stroke-width="1"/><path d="M289.82891,174.34226c2.41721,3.53568 11.37854,14.53235 -0.64743,18.40725c-10.3376,3.32827 -29.71407,-25.8663 -21.38079,-31.29582c5.0903,-3.32052 9.88789,-0.01938 9.88789,-0.01938c0,0 6.73408,-2.07799 11.63247,-4.55141c8.34103,-4.18893 11.21183,-6.69337 11.21183,-6.69337" fill="none" stroke="#231f20" stroke-width="1.2"/><path d="M322.75301,157.61949c0,0 -19.62264,13.77636 -36.45008,17.09494" fill="none" stroke="#231f20" stroke-width="1.2"/></g><path d="M349.67575,122.95082c1.81242,-6.8814 3.69463,-5.4082 3.69463,-5.4082c1.04869,0.787 2.2098,1.76784 3.35153,2.91732c3.48334,3.48916 6.48596,10.75243 13.2937,8.31001c6.79998,-2.44047 10.9831,-11.8108 18.83177,-4.6619c7.84479,7.15472 -7.00352,16.23234 -12.58036,19.02949c-5.59235,2.78357 -10.47135,5.39657 -17.27328,-1.40342c-6.80192,-6.8058 -9.19587,-7.12564 -9.19587,-7.12564c-3.89041,-2.84948 -1.93261,-4.79372 -0.12212,-11.65767z" fill="#faa51d" stroke="#231f20" stroke-width="1.2" stroke-linecap="butt"/><g stroke-linecap="butt"><path d="M331.97796,141.64883c0,0 14.82311,14.94911 21.56494,20.87874c4.10945,3.6074 13.03589,11.23122 13.03589,11.23122c0,0 32.36971,-5.58072 28.64406,13.39643c-1.09133,5.58459 -37.86707,1.34333 -37.86707,1.34333c0,0 -13.98378,-11.29518 -23.34829,-20.55115c-11.36497,-11.23703 -20.86517,-18.68445 -20.86517,-18.68445c-16.54249,-16.07339 -3.22166,-22.88501 2.04697,-32.10608c5.27057,-9.2172 11.48321,-5.64856 18.44796,-4.3285c6.96087,1.31425 11.85733,0.94013 14.8677,1.50422c7.43579,1.39566 5.383,9.25596 3.68688,14.14273c0,0 -2.72154,7.07718 -5.23374,10.81252c-3.01231,4.47969 -5.35586,7.36794 -7.6587,9.13578" fill="#faa51d" stroke="#231f20" stroke-width="1.2"/><path d="M348.02227,135.67268c0,0 -2.35906,3.53956 -4.0513,5.8928c-1.47514,2.58198 -4.84412,5.77456 -4.84412,5.77456l-6.15643,-6.2107c0,0 -11.79917,-7.6684 -6.67399,-12.81491c2.95803,-2.98129 7.366,-8.09873 16.93987,-2.94834c9.57387,5.15039 4.78596,10.30659 4.78596,10.30659" fill="#ffffff" stroke="none" stroke-width="1"/></g><g><path d="M356.00276,14.36042l14.44512,-13.96439l5.54195,22.39265c0,0 12.44855,9.25209 16.18195,15.58685c6.27661,10.64194 6.45107,19.32607 6.45107,19.32607c0,0 13.72403,4.08813 16.13155,15.16427c2.40946,11.07808 -6.26304,32.01691 -42.61814,39.24529c-36.3551,7.22256 -65.72801,-2.64788 -79.45204,-24.79629c-13.71627,-22.13678 7.99599,-48.47218 6.74377,-46.95633l-4.33237,-36.6478l25.23438,16.46883c0,0 8.71514,-3.30113 17.88,-3.73728c3.42713,-0.16477 9.64946,0.17058 12.63463,0.44778z" fill="#faa51d" stroke="#231f20" stroke-width="1.2" stroke-linecap="butt"/><path d="M397.99673,58.86659c0,0 13.05721,2.87274 15.46473,13.94888c2.40558,11.08002 -6.89691,31.79206 -41.30777,38.06091c-7.8351,1.55655 -18.16689,2.53546 -23.79801,2.21174c-10.3221,-0.58928 -37.5608,-9.84524 -36.25624,-32.04599c0.5854,-9.98869 16.93987,-11.78754 16.93987,-11.78754l15.09061,-6.62359c0,0 13.26074,6.25723 21.73165,4.41379c8.46509,-1.83762 8.46509,-8.46509 8.46509,-8.46509l17.66872,-5.15814l4.81116,4.0009z" fill="#ffffff" stroke="none" stroke-width="1" stroke-linecap="butt"/><path d="M291.58706,78.29927c0,0 -7.03066,0.93044 -10.64581,1.13785c-3.61903,0.20547 -11.58013,-0.5195 -11.58013,-0.5195" fill="none" stroke="#231f20" stroke-width="1.2" stroke-linecap="butt"/><path d="M429.058,60.35142c0,0 -3.54344,3.10729 -8.80625,4.93328c-4.47775,1.56237 -13.29564,3.00262 -13.29564,3.00262" fill="none" stroke="#231f20" stroke-width="1.2" stroke-linecap="butt"/><path d="M267.69795,59.57411c0,0 4.40216,0.91494 12.41559,4.46419c7.23613,3.20421 11.85733,6.64879 11.85733,6.64879" fill="none" stroke="#231f20" stroke-width="1.2" stroke-linecap="butt"/><path d="M427.58092,82.72081c0,0 -3.63648,0.32178 -9.00591,-0.21323c-5.44115,-0.5447 -10.72529,-2.68471 -10.72529,-2.68471" fill="none" stroke="#231f20" stroke-width="1.2" stroke-linecap="butt"/><path d="M350.14872,16.99861c5.50512,1.3569 7.53465,2.84754 7.53465,2.84754" fill="none" stroke="#000000" stroke-width="1" stroke-linecap="round"/><path d="M326.12392,24.42277l-11.74296,-8.44764" fill="none" stroke="#000000" stroke-width="1" stroke-linecap="butt"/></g><g stroke-width="1" stroke-linecap="butt"><path d="M397.97534,45.87876c1.37763,10.27658 -2.69804,19.3113 -9.10333,20.17318c-6.40962,0.86197 -12.71514,-6.77844 -14.09809,-17.06186c-1.39254,-10.28585 2.68938,-19.31114 9.09983,-20.17485c6.40446,-0.86014 12.72122,6.7792 14.10159,17.06354z" fill="#ffffff" stroke="#231f20"/><path d="M390.68917,57.77184c-0.90135,1.88953 -3.03558,2.7528 -4.78164,1.91989c-1.73731,-0.82873 -2.42253,-3.03911 -1.52202,-4.92688c0.90135,-1.88953 3.05125,-2.74962 4.78856,-1.92089c1.74606,0.83291 2.41645,3.03835 1.5151,4.92788" fill="#231f20" stroke="none"/></g><g stroke-width="1" stroke-linecap="butt"><path d="M343.70312,52.07167c0.31753,10.3674 -5.62517,18.96257 -13.25953,19.19264c-7.64373,0.23798 -14.09244,-7.98278 -14.40832,-18.34916c-0.32084,-10.36941 5.61489,-18.96432 13.2566,-19.19898c7.64235,-0.232 14.09078,7.98176 14.41126,18.3555z" fill="#ffffff" stroke="#231f20"/><path d="M334.79895,60.00858c-1.09159,1.78865 -3.30484,2.42723 -4.95616,1.41946c-1.64139,-1.00172 -2.09668,-3.27342 -1.00711,-5.05877c1.09059,-1.78699 3.31807,-2.41915 4.95946,-1.41743c1.64801,1.00576 2.09439,3.26975 1.0038,5.05674" fill="#231f20" stroke="none"/></g><path d="M364.52406,62.96635c3.59383,0 8.82951,-0.55051 9.10477,1.10296c0.27719,1.65735 -3.31276,8.14719 -5.792,8.42244c-2.487,0.27526 -11.87283,-4.56111 -12.00852,-7.59668c-0.14344,-3.03557 5.37912,-1.92873 8.69576,-1.92873z" fill="#5e4a42" stroke="#000000" stroke-width="1" stroke-linecap="butt"/><path d="M339.16556,89.75542c0,0 19.4526,-7.6759 26.37132,-11.0041c6.91447,-3.32735 18.58851,-10.37037 18.58851,-10.37037c0,0 0.01227,25.18458 -17.35828,32.34906c-17.36578,7.1706 -24.13096,-2.02755 -27.60155,-10.97459z" fill="none" stroke="#231f20" stroke-width="1.2" stroke-linecap="butt"/><path d="M154.58355,74.31655c3.82052,-2.46266 15.2556,-19.43611 21.59834,-6.03498c6.34078,13.39726 -12.80768,20.98873 -19.60419,22.94612c-6.79461,1.94962 -8.5645,-4.14606 -12.07558,-8.31437c-6.51533,-7.74586 -13.13847,-12.49632 -9.69415,-22.28255c3.43656,-9.7862 11.3213,-2.67301 14.83099,2.01674c2.83859,3.79546 6.01998,7.92852 7.13375,9.37508" fill="#faa51d" stroke="#231f20" stroke-width="1.2" stroke-linecap="butt"/><g stroke-width="1" stroke-linecap="butt"><path d="M164.8438,89.37074c1.56819,0.91494 4.75107,2.56647 0.17446,9.19588c-4.57855,6.6294 -17.96529,7.84867 -19.53735,7.89713c-5.99554,0.16282 -13.39256,0.15314 -21.49904,-2.54321c-23.52275,-7.8099 -23.66619,-33.15865 -16.19163,-37.20607c7.47068,-4.04548 10.84741,11.6441 21.41569,21.15594c4.72587,4.2529 10.32597,5.91606 15.00726,6.79029c6.62165,1.23672 19.06051,-6.20489 20.63063,-5.28995z" fill="#faa51d" stroke="#000000"/><path d="M117.24003,73.84204c3.21972,4.66966 8.85859,12.39815 8.85859,12.39815c0,0 -7.09075,-1.60889 -11.11297,1.77172c-4.03386,3.38836 0.32372,10.05653 -2.63819,8.04445c-2.38232,-2.66727 -5.55358,-5.63694 -7.48813,-12.40203c-1.93649,-6.75734 0.16864,-15.25731 4.02416,-16.44557c4.11527,-0.97309 5.30934,2.15358 8.35654,6.63328z" fill="#ffffff" stroke="none"/></g><g stroke-linecap="butt"><path d="M174.753,109.61949c0,0 -17.12014,12.01821 -33.0908,16.30601l0.16671,0.41676c2.41721,3.53568 11.37854,14.53235 -0.64743,18.40725c-10.3376,3.32827 -29.30894,-25.40108 -20.97567,-30.82478c5.0903,-3.32052 9.48276,-0.48848 9.48276,-0.48848c0,0 6.73408,-2.07411 11.63247,-4.5456c8.34103,-4.18893 11.21183,-6.69337 11.21183,-6.69337c0,0 8.11036,-8.34685 13.28982,-8.01925c5.17753,0.32953 15.62174,9.13772 8.93031,15.44147z" fill="#faa51d" stroke="none" stroke-width="1"/><path d="M141.82891,126.34226c2.41721,3.53568 11.37854,14.53235 -0.64743,18.40725c-10.3376,3.32827 -29.71407,-25.8663 -21.3808,-31.29582c5.0903,-3.32052 9.88789,-0.01938 9.88789,-0.01938c0,0 6.73408,-2.07799 11.63247,-4.55141c8.34103,-4.18893 11.21183,-6.69337 11.21183,-6.69337" fill="none" stroke="#231f20" stroke-width="1.2"/><path d="M174.753,109.61949c0,0 -19.62264,13.77636 -36.45008,17.09494" fill="none" stroke="#231f20" stroke-width="1.2"/></g><path d="M201.67575,74.95081c1.81243,-6.8814 3.69463,-5.4082 3.69463,-5.4082c1.04868,0.787 2.2098,1.76784 3.35153,2.91733c3.48334,3.48916 6.48596,10.75242 13.2937,8.31001c6.79998,-2.44048 10.98309,-11.81081 18.83177,-4.66191c7.84479,7.15471 -7.00351,16.23234 -12.58035,19.02949c-5.59235,2.78358 -10.47136,5.39657 -17.27328,-1.40341c-6.80192,-6.8058 -9.19587,-7.12564 -9.19587,-7.12564c-3.89042,-2.84948 -1.9326,-4.79372 -0.12212,-11.65767z" fill="#faa51d" stroke="#231f20" stroke-width="1.2" stroke-linecap="butt"/><g stroke-linecap="butt"><path d="M183.97795,93.64884c0,0 14.82311,14.94911 21.56494,20.87874c4.10946,3.60741 13.03589,11.23121 13.03589,11.23121c0,0 32.36971,-5.58071 28.64406,13.39643c-1.09133,5.5846 -37.86707,1.34332 -37.86707,1.34332c0,0 -13.98378,-11.29519 -23.34829,-20.55115c-11.36496,-11.23703 -20.86517,-18.68444 -20.86517,-18.68444c-16.54249,-16.0734 -3.22165,-22.88501 2.04697,-32.10609c5.27057,-9.2172 11.48321,-5.64856 18.44796,-4.3285c6.96087,1.31425 11.85732,0.94013 14.86769,1.50422c7.43579,1.39566 5.383,9.25597 3.68688,14.14273c0,0 -2.72154,7.07717 -5.23374,10.81251c-3.01231,4.47969 -5.35586,7.36794 -7.6587,9.13578" fill="#faa51d" stroke="#231f20" stroke-width="1.2"/><path d="M200.02227,87.67268c0,0 -2.35906,3.53956 -4.0513,5.8928c-1.47514,2.58198 -4.84412,5.77456 -4.84412,5.77456l-6.15642,-6.2107c0,0 -11.79917,-7.6684 -6.67399,-12.81491c2.95803,-2.9813 7.366,-8.09872 16.93987,-2.94834c9.57387,5.15039 4.78596,10.30659 4.78596,10.30659" fill="#ffffff" stroke="none" stroke-width="1"/></g><g><path d="M208.00275,-33.63958l14.44512,-13.96439l5.54195,22.39265c0,0 12.44854,9.25209 16.18194,15.58685c6.27661,10.64194 6.45107,19.32607 6.45107,19.32607c0,0 13.72403,4.08813 16.13155,15.16428c2.40946,11.07808 -6.26305,32.01691 -42.61815,39.24529c-36.3551,7.22256 -65.72801,-2.64788 -79.45203,-24.79629c-13.71627,-22.13678 7.99599,-48.47218 6.74377,-46.95633l-4.33237,-36.6478l25.23438,16.46883c0,0 8.71514,-3.30114 17.88,-3.73728c3.42713,-0.16476 9.64947,0.17059 12.63464,0.44778z" fill="#faa51d" stroke="#231f20" stroke-width="1.2" stroke-linecap="butt"/><path d="M249.99673,10.86659c0,0 13.05721,2.87274 15.46473,13.94888c2.40558,11.08002 -6.89691,31.79206 -41.30777,38.06091c-7.8351,1.55656 -18.16689,2.53546 -23.79801,2.21174c-10.32209,-0.58928 -37.5608,-9.84525 -36.25624,-32.04599c0.5854,-9.98869 16.93987,-11.78755 16.93987,-11.78755l15.09062,-6.62358c0,0 13.26074,6.25723 21.73164,4.41379c8.46509,-1.83763 8.46509,-8.46509 8.46509,-8.46509l17.66872,-5.15814l4.81116,4.00091z" fill="#ffffff" stroke="none" stroke-width="1" stroke-linecap="butt"/><path d="M143.58706,30.29927c0,0 -7.03066,0.93044 -10.64582,1.13785c-3.61903,0.20548 -11.58013,-0.51949 -11.58013,-0.51949" fill="none" stroke="#231f20" stroke-width="1.2" stroke-linecap="butt"/><path d="M281.058,12.35142c0,0 -3.54343,3.10729 -8.80625,4.93329c-4.47776,1.56237 -13.29564,3.00261 -13.29564,3.00261" fill="none" stroke="#231f20" stroke-width="1.2" stroke-linecap="butt"/><path d="M119.69795,11.57411c0,0 4.40215,0.91494 12.41559,4.46419c7.23613,3.20421 11.85733,6.64878 11.85733,6.64878" fill="none" stroke="#231f20" stroke-width="1.2" stroke-linecap="butt"/><path d="M279.58092,34.72081c0,0 -3.63648,0.32178 -9.00591,-0.21323c-5.44115,-0.5447 -10.72529,-2.68472 -10.72529,-2.68472" fill="none" stroke="#231f20" stroke-width="1.2" stroke-linecap="butt"/><path d="M202.14873,-31.00138c5.50512,1.3569 7.53465,2.84754 7.53465,2.84754" fill="none" stroke="#000000" stroke-width="1" stroke-linecap="round"/><path d="M178.12392,-23.57723l-11.74296,-8.44764" fill="none" stroke="#000000" stroke-width="1" stroke-linecap="butt"/></g><g stroke-width="1" stroke-linecap="butt"><path d="M249.97534,-2.12124c1.37763,10.27658 -2.69804,19.3113 -9.10333,20.17318c-6.40963,0.86197 -12.71514,-6.77844 -14.09809,-17.06187c-1.39254,-10.28585 2.68937,-19.31114 9.09983,-20.17485c6.40446,-0.86013 12.72122,6.77921 14.10159,17.06354z" fill="#ffffff" stroke="#231f20"/><path d="M242.68917,9.77183c-0.90134,1.88953 -3.03558,2.7528 -4.78164,1.91989c-1.73731,-0.82873 -2.42253,-3.0391 -1.52202,-4.92687c0.90134,-1.88952 3.05125,-2.74963 4.78856,-1.92089c1.74606,0.83291 2.41645,3.03835 1.5151,4.92788" fill="#231f20" stroke="none"/></g><g stroke-width="1" stroke-linecap="butt"><path d="M195.70312,4.07167c0.31753,10.3674 -5.62517,18.96258 -13.25953,19.19265c-7.64373,0.23798 -14.09244,-7.98278 -14.40832,-18.34916c-0.32084,-10.36942 5.61489,-18.96432 13.25659,-19.19898c7.64236,-0.232 14.09078,7.98177 14.41126,18.3555z" fill="#ffffff" stroke="#231f20"/><path d="M186.79895,12.00858c-1.09159,1.78865 -3.30484,2.42724 -4.95615,1.41946c-1.64139,-1.00172 -2.09669,-3.27343 -1.00711,-5.05877c1.09058,-1.78699 3.31807,-2.41915 4.95946,-1.41743c1.64801,1.00576 2.09438,3.26975 1.0038,5.05674" fill="#231f20" stroke="none"/></g><path d="M216.52406,14.96635c3.59384,0 8.82951,-0.55051 9.10476,1.10297c0.2772,1.65735 -3.31277,8.14718 -5.79201,8.42244c-2.48699,0.27526 -11.87283,-4.56111 -12.00852,-7.59668c-0.14344,-3.03557 5.37912,-1.92873 8.69576,-1.92873z" fill="#5e4a42" stroke="#000000" stroke-width="1" stroke-linecap="butt"/><path d="M191.16556,41.75542c0,0 19.4526,-7.6759 26.37132,-11.0041c6.91447,-3.32735 18.5885,-10.37037 18.5885,-10.37037c0,0 0.01227,25.18458 -17.35827,32.34906c-17.36578,7.1706 -24.13096,-2.02755 -27.60155,-10.97459z" fill="none" stroke="#231f20" stroke-width="1.2" stroke-linecap="butt"/><path d="M112.58355,220.31655c3.82052,-2.46266 15.25561,-19.43611 21.59835,-6.03498c6.34078,13.39727 -12.80768,20.98873 -19.60419,22.94611c-6.79461,1.94963 -8.5645,-4.14606 -12.07559,-8.31436c-6.51533,-7.74586 -13.13847,-12.49632 -9.69415,-22.28255c3.43656,-9.7862 11.3213,-2.67301 14.831,2.01674c2.83859,3.79546 6.01998,7.92852 7.13375,9.37508" fill="#faa51d" stroke="#231f20" stroke-width="1.2" stroke-linecap="butt"/><g stroke-width="1" stroke-linecap="butt"><path d="M122.8438,235.37074c1.56819,0.91493 4.75107,2.56647 0.17446,9.19588c-4.57855,6.6294 -17.96529,7.84867 -19.53735,7.89713c-5.99554,0.16282 -13.39256,0.15313 -21.49904,-2.54321c-23.52275,-7.8099 -23.66619,-33.15864 -16.19163,-37.20607c7.47068,-4.04549 10.84741,11.6441 21.41568,21.15594c4.72588,4.2529 10.32597,5.91607 15.00726,6.7903c6.62165,1.23672 19.06051,-6.20489 20.63062,-5.28996z" fill="#faa51d" stroke="#000000"/><path d="M75.24003,219.84204c3.21972,4.66966 8.85858,12.39815 8.85858,12.39815c0,0 -7.09074,-1.60889 -11.11297,1.77172c-4.03386,3.38836 0.32372,10.05653 -2.63819,8.04445c-2.38232,-2.66727 -5.55358,-5.63693 -7.48812,-12.40202c-1.93649,-6.75734 0.16864,-15.25732 4.02416,-16.44557c4.11527,-0.97309 5.30934,2.15358 8.35654,6.63328z" fill="#ffffff" stroke="none"/></g><g stroke-linecap="butt"><path d="M132.75301,255.61949c0,0 -17.12014,12.01821 -33.0908,16.30601l0.16671,0.41676c2.41721,3.53568 11.37854,14.53235 -0.64743,18.40725c-10.3376,3.32827 -29.30894,-25.40108 -20.97566,-30.82479c5.09029,-3.32052 9.48276,-0.48848 9.48276,-0.48848c0,0 6.73408,-2.07411 11.63247,-4.5456c8.34103,-4.18893 11.21183,-6.69337 11.21183,-6.69337c0,0 8.11036,-8.34685 13.28982,-8.01925c5.17753,0.32953 15.62174,9.13772 8.93031,15.44147z" fill="#faa51d" stroke="none" stroke-width="1"/><path d="M99.82891,272.34226c2.41721,3.53568 11.37854,14.53235 -0.64743,18.40725c-10.3376,3.32827 -29.71407,-25.8663 -21.38079,-31.29582c5.09029,-3.32052 9.88789,-0.01938 9.88789,-0.01938c0,0 6.73408,-2.07799 11.63247,-4.55142c8.34103,-4.18893 11.21183,-6.69337 11.21183,-6.69337" fill="none" stroke="#231f20" stroke-width="1.2"/><path d="M132.75301,255.61949c0,0 -19.62265,13.77636 -36.45008,17.09494" fill="none" stroke="#231f20" stroke-width="1.2"/></g><path d="M159.67575,220.95081c1.81242,-6.8814 3.69463,-5.40819 3.69463,-5.40819c1.04869,0.787 2.2098,1.76784 3.35153,2.91733c3.48335,3.48916 6.48596,10.75242 13.2937,8.31001c6.79998,-2.44047 10.98309,-11.8108 18.83176,-4.6619c7.8448,7.15472 -7.00351,16.23234 -12.58035,19.02949c-5.59234,2.78357 -10.47136,5.39657 -17.27328,-1.40341c-6.80192,-6.8058 -9.19587,-7.12564 -9.19587,-7.12564c-3.89041,-2.84948 -1.9326,-4.79372 -0.12212,-11.65767z" fill="#faa51d" stroke="#231f20" stroke-width="1.2" stroke-linecap="butt"/><g stroke-linecap="butt"><path d="M141.97796,239.64884c0,0 14.82312,14.94911 21.56494,20.87874c4.10945,3.6074 13.03589,11.23121 13.03589,11.23121c0,0 32.3697,-5.58071 28.64406,13.39643c-1.09133,5.5846 -37.86707,1.34333 -37.86707,1.34333c0,0 -13.98377,-11.29519 -23.34829,-20.55115c-11.36497,-11.23703 -20.86517,-18.68444 -20.86517,-18.68444c-16.54249,-16.0734 -3.22165,-22.88501 2.04698,-32.10609c5.27057,-9.2172 11.48321,-5.64856 18.44796,-4.3285c6.96087,1.31425 11.85733,0.94013 14.86769,1.50421c7.43579,1.39567 5.383,9.25597 3.68688,14.14273c0,0 -2.72155,7.07718 -5.23374,10.81251c-3.01231,4.4797 -5.35586,7.36794 -7.6587,9.13578" fill="#faa51d" stroke="#231f20" stroke-width="1.2"/><path d="M158.02228,233.67268c0,0 -2.35907,3.53955 -4.05131,5.8928c-1.47514,2.58198 -4.84411,5.77456 -4.84411,5.77456l-6.15643,-6.21071c0,0 -11.79917,-7.66839 -6.67399,-12.8149c2.95803,-2.9813 7.36601,-8.09873 16.93987,-2.94834c9.57387,5.15039 4.78597,10.30659 4.78597,10.30659" fill="#ffffff" stroke="none" stroke-width="1"/></g><g><path d="M166.00276,112.36042l14.44512,-13.96439l5.54195,22.39265c0,0 12.44855,9.25208 16.18195,15.58685c6.27661,10.64194 6.45107,19.32607 6.45107,19.32607c0,0 13.72403,4.08813 16.13155,15.16428c2.40946,11.07808 -6.26305,32.01692 -42.61815,39.24529c-36.3551,7.22256 -65.72801,-2.64788 -79.45203,-24.79629c-13.71627,-22.13678 7.99599,-48.47218 6.74377,-46.95633l-4.33237,-36.6478l25.23438,16.46883c0,0 8.71514,-3.30114 17.88,-3.73728c3.42713,-0.16477 9.64946,0.17058 12.63464,0.44778z" fill="#faa51d" stroke="#231f20" stroke-width="1.2" stroke-linecap="butt"/><path d="M207.99673,156.86659c0,0 13.05721,2.87274 15.46473,13.94888c2.40558,11.08002 -6.8969,31.79206 -41.30777,38.06091c-7.8351,1.55656 -18.1669,2.53546 -23.79801,2.21174c-10.32209,-0.58928 -37.5608,-9.84524 -36.25624,-32.04599c0.58541,-9.98869 16.93987,-11.78754 16.93987,-11.78754l15.09061,-6.62358c0,0 13.26074,6.25722 21.73165,4.41378c8.46509,-1.83763 8.46509,-8.46509 8.46509,-8.46509l17.66871,-5.15814l4.81116,4.0009z" fill="#ffffff" stroke="none" stroke-width="1" stroke-linecap="butt"/><path d="M101.58706,176.29927c0,0 -7.03066,0.93044 -10.64581,1.13785c-3.61903,0.20548 -11.58013,-0.5195 -11.58013,-0.5195" fill="none" stroke="#231f20" stroke-width="1.2" stroke-linecap="butt"/><path d="M239.058,158.35142c0,0 -3.54343,3.10729 -8.80625,4.93329c-4.47776,1.56237 -13.29564,3.00261 -13.29564,3.00261" fill="none" stroke="#231f20" stroke-width="1.2" stroke-linecap="butt"/><path d="M77.69795,157.57411c0,0 4.40215,0.91494 12.41559,4.46419c7.23613,3.20421 11.85733,6.64879 11.85733,6.64879" fill="none" stroke="#231f20" stroke-width="1.2" stroke-linecap="butt"/><path d="M237.58092,180.72081c0,0 -3.63648,0.32178 -9.00591,-0.21323c-5.44115,-0.54469 -10.72529,-2.68471 -10.72529,-2.68471" fill="none" stroke="#231f20" stroke-width="1.2" stroke-linecap="butt"/><path d="M160.14873,114.99862c5.50512,1.3569 7.53464,2.84754 7.53464,2.84754" fill="none" stroke="#000000" stroke-width="1" stroke-linecap="round"/><path d="M136.12392,122.42277l-11.74296,-8.44764" fill="none" stroke="#000000" stroke-width="1" stroke-linecap="butt"/></g><g stroke-width="1" stroke-linecap="butt"><path d="M207.97534,143.87876c1.37762,10.27658 -2.69804,19.3113 -9.10333,20.17318c-6.40963,0.86197 -12.71514,-6.77844 -14.09809,-17.06187c-1.39255,-10.28585 2.68938,-19.31114 9.09984,-20.17485c6.40446,-0.86014 12.72122,6.7792 14.10159,17.06354z" fill="#ffffff" stroke="#231f20"/><path d="M200.68917,155.77183c-0.90134,1.88953 -3.03558,2.7528 -4.78164,1.91989c-1.73731,-0.82874 -2.42253,-3.03911 -1.52201,-4.92688c0.90134,-1.88952 3.05125,-2.74962 4.78856,-1.92089c1.74606,0.83291 2.41644,3.03835 1.5151,4.92788" fill="#231f20" stroke="none"/></g><g stroke-width="1" stroke-linecap="butt"><path d="M153.70312,150.07168c0.31753,10.3674 -5.62517,18.96257 -13.25953,19.19265c-7.64373,0.23798 -14.09244,-7.98278 -14.40832,-18.34916c-0.32084,-10.36942 5.61489,-18.96432 13.2566,-19.19899c7.64236,-0.232 14.09078,7.98177 14.41126,18.3555z" fill="#ffffff" stroke="#231f20"/><path d="M144.79895,158.00858c-1.0916,1.78865 -3.30484,2.42723 -4.95615,1.41946c-1.64139,-1.00172 -2.09668,-3.27343 -1.00711,-5.05877c1.09059,-1.78699 3.31807,-2.41915 4.95946,-1.41743c1.64801,1.00576 2.09438,3.26975 1.0038,5.05674" fill="#231f20" stroke="none"/></g><path d="M174.52406,160.96635c3.59384,0 8.82951,-0.55051 9.10477,1.10297c0.2772,1.65735 -3.31277,8.14718 -5.79201,8.42244c-2.487,0.27525 -11.87283,-4.5611 -12.00852,-7.59668c-0.14345,-3.03557 5.37912,-1.92873 8.69576,-1.92873z" fill="#5e4a42" stroke="#000000" stroke-width="1" stroke-linecap="butt"/><path d="M149.16555,187.75542c0,0 19.4526,-7.6759 26.37132,-11.0041c6.91447,-3.32735 18.5885,-10.37037 18.5885,-10.37037c0,0 0.01227,25.18457 -17.35828,32.34906c-17.36578,7.1706 -24.13096,-2.02754 -27.60155,-10.97458z" fill="none" stroke="#231f20" stroke-width="1.2" stroke-linecap="butt"/><path d="M281.58355,249.31655c3.82053,-2.46266 15.25561,-19.43611 21.59834,-6.03498c6.34078,13.39727 -12.80768,20.98873 -19.60419,22.94612c-6.79461,1.94963 -8.5645,-4.14606 -12.07558,-8.31437c-6.51533,-7.74587 -13.13847,-12.49632 -9.69416,-22.28255c3.43656,-9.7862 11.3213,-2.67301 14.831,2.01674c2.83859,3.79546 6.01998,7.92852 7.13375,9.37508" fill="#faa51d" stroke="#231f20" stroke-width="1.2" stroke-linecap="butt"/><g stroke-width="1" stroke-linecap="butt"><path d="M291.8438,264.37073c1.56818,0.91494 4.75107,2.56647 0.17445,9.19588c-4.57855,6.62941 -17.96529,7.84867 -19.53735,7.89713c-5.99554,0.16282 -13.39256,0.15314 -21.49904,-2.54321c-23.52275,-7.8099 -23.66619,-33.15865 -16.19163,-37.20607c7.47068,-4.04549 10.84741,11.6441 21.41568,21.15594c4.72587,4.2529 10.32597,5.91606 15.00726,6.79029c6.62165,1.23672 19.06051,-6.20489 20.63063,-5.28995z" fill="#faa51d" stroke="#000000"/><path d="M244.24003,248.84204c3.21972,4.66966 8.85859,12.39815 8.85859,12.39815c0,0 -7.09074,-1.6089 -11.11297,1.77171c-4.03385,3.38836 0.32372,10.05653 -2.63819,8.04445c-2.38232,-2.66727 -5.55358,-5.63693 -7.48812,-12.40202c-1.93649,-6.75734 0.16864,-15.25731 4.02416,-16.44557c4.11527,-0.97309 5.30934,2.15358 8.35654,6.63328z" fill="#ffffff" stroke="none"/></g><g stroke-linecap="butt"><path d="M301.753,284.61949c0,0 -17.12014,12.01821 -33.0908,16.306l0.1667,0.41676c2.41721,3.53568 11.37854,14.53235 -0.64743,18.40725c-10.3376,3.32827 -29.30894,-25.40108 -20.97566,-30.82478c5.0903,-3.32052 9.48276,-0.48848 9.48276,-0.48848c0,0 6.73408,-2.07411 11.63247,-4.5456c8.34103,-4.18893 11.21183,-6.69337 11.21183,-6.69337c0,0 8.11035,-8.34685 13.28982,-8.01925c5.17753,0.32953 15.62174,9.13772 8.93031,15.44147z" fill="#faa51d" stroke="none" stroke-width="1"/><path d="M268.82891,301.34225c2.41721,3.53568 11.37854,14.53235 -0.64743,18.40725c-10.3376,3.32827 -29.71407,-25.8663 -21.38079,-31.29582c5.09029,-3.32052 9.88789,-0.01938 9.88789,-0.01938c0,0 6.73408,-2.07799 11.63247,-4.55142c8.34103,-4.18893 11.21183,-6.69337 11.21183,-6.69337" fill="none" stroke="#231f20" stroke-width="1.2"/><path d="M301.753,284.61949c0,0 -19.62264,13.77636 -36.45008,17.09494" fill="none" stroke="#231f20" stroke-width="1.2"/></g><path d="M328.67575,249.95082c1.81242,-6.8814 3.69463,-5.4082 3.69463,-5.4082c1.04869,0.787 2.2098,1.76784 3.35153,2.91733c3.48335,3.48916 6.48596,10.75242 13.2937,8.31001c6.79998,-2.44047 10.98309,-11.8108 18.83176,-4.6619c7.8448,7.15472 -7.00351,16.23234 -12.58035,19.02949c-5.59235,2.78357 -10.47136,5.39657 -17.27328,-1.40341c-6.80192,-6.8058 -9.19587,-7.12564 -9.19587,-7.12564c-3.89041,-2.84948 -1.9326,-4.79372 -0.12212,-11.65767z" fill="#faa51d" stroke="#231f20" stroke-width="1.2" stroke-linecap="butt"/><g stroke-linecap="butt"><path d="M310.97795,268.64883c0,0 14.82312,14.94911 21.56495,20.87874c4.10945,3.60741 13.03589,11.23122 13.03589,11.23122c0,0 32.36971,-5.58072 28.64406,13.39643c-1.09133,5.58459 -37.86707,1.34333 -37.86707,1.34333c0,0 -13.98378,-11.29519 -23.34829,-20.55115c-11.36496,-11.23703 -20.86518,-18.68445 -20.86518,-18.68445c-16.54249,-16.0734 -3.22165,-22.88501 2.04698,-32.10609c5.27057,-9.2172 11.48321,-5.64856 18.44796,-4.3285c6.96087,1.31425 11.85732,0.94014 14.86769,1.50422c7.43579,1.39567 5.383,9.25597 3.68688,14.14273c0,0 -2.72155,7.07717 -5.23374,10.81251c-3.01231,4.47969 -5.35586,7.36794 -7.65871,9.13578" fill="#faa51d" stroke="#231f20" stroke-width="1.2"/><path d="M327.02227,262.67268c0,0 -2.35907,3.53955 -4.05131,5.8928c-1.47514,2.58198 -4.84411,5.77456 -4.84411,5.77456l-6.15643,-6.2107c0,0 -11.79917,-7.6684 -6.67399,-12.81491c2.95803,-2.98129 7.366,-8.09872 16.93987,-2.94834c9.57386,5.15039 4.78596,10.30659 4.78596,10.30659" fill="#ffffff" stroke="none" stroke-width="1"/></g><g><path d="M335.00275,141.36042l14.44512,-13.96439l5.54195,22.39265c0,0 12.44855,9.25208 16.18195,15.58685c6.27661,10.64193 6.45107,19.32607 6.45107,19.32607c0,0 13.72402,4.08813 16.13155,15.16428c2.40946,11.07808 -6.26305,32.01692 -42.61815,39.24529c-36.3551,7.22256 -65.72801,-2.64788 -79.45203,-24.79629c-13.71627,-22.13678 7.99599,-48.47218 6.74377,-46.95634l-4.33237,-36.6478l25.23438,16.46883c0,0 8.71514,-3.30114 17.88,-3.73728c3.42713,-0.16477 9.64947,0.17058 12.63464,0.44778z" fill="#faa51d" stroke="#231f20" stroke-width="1.2" stroke-linecap="butt"/><path d="M376.99673,185.86659c0,0 13.05721,2.87274 15.46473,13.94888c2.40558,11.08002 -6.8969,31.79206 -41.30777,38.06091c-7.8351,1.55656 -18.16689,2.53545 -23.79801,2.21174c-10.32209,-0.58928 -37.5608,-9.84524 -36.25624,-32.04599c0.5854,-9.98869 16.93987,-11.78754 16.93987,-11.78754l15.09061,-6.62359c0,0 13.26074,6.25723 21.73165,4.41379c8.46509,-1.83763 8.46509,-8.46509 8.46509,-8.46509l17.66871,-5.15814l4.81116,4.0009z" fill="#ffffff" stroke="none" stroke-width="1" stroke-linecap="butt"/><path d="M270.58706,205.29927c0,0 -7.03066,0.93044 -10.64582,1.13785c-3.61903,0.20548 -11.58013,-0.5195 -11.58013,-0.5195" fill="none" stroke="#231f20" stroke-width="1.2" stroke-linecap="butt"/><path d="M408.058,187.35142c0,0 -3.54344,3.10729 -8.80625,4.93329c-4.47776,1.56237 -13.29564,3.00261 -13.29564,3.00261" fill="none" stroke="#231f20" stroke-width="1.2" stroke-linecap="butt"/><path d="M246.69795,186.57411c0,0 4.40215,0.91494 12.41559,4.46419c7.23613,3.20421 11.85733,6.64879 11.85733,6.64879" fill="none" stroke="#231f20" stroke-width="1.2" stroke-linecap="butt"/><path d="M406.58093,209.72081c0,0 -3.63648,0.32178 -9.00591,-0.21323c-5.44115,-0.54469 -10.72529,-2.68471 -10.72529,-2.68471" fill="none" stroke="#231f20" stroke-width="1.2" stroke-linecap="butt"/><path d="M329.14873,143.99862c5.50512,1.35689 7.53464,2.84754 7.53464,2.84754" fill="none" stroke="#000000" stroke-width="1" stroke-linecap="round"/><path d="M305.12392,151.42277l-11.74296,-8.44764" fill="none" stroke="#000000" stroke-width="1" stroke-linecap="butt"/></g><g stroke-width="1" stroke-linecap="butt"><path d="M376.97534,172.87877c1.37763,10.27658 -2.69804,19.3113 -9.10333,20.17318c-6.40963,0.86197 -12.71514,-6.77844 -14.0981,-17.06187c-1.39254,-10.28585 2.68938,-19.31114 9.09984,-20.17485c6.40446,-0.86014 12.72122,6.7792 14.10159,17.06354z" fill="#ffffff" stroke="#231f20"/><path d="M369.68917,184.77184c-0.90134,1.88952 -3.03558,2.7528 -4.78164,1.91989c-1.73731,-0.82873 -2.42253,-3.03911 -1.52201,-4.92687c0.90134,-1.88952 3.05125,-2.74962 4.78856,-1.92089c1.74606,0.83291 2.41644,3.03835 1.5151,4.92788" fill="#231f20" stroke="none"/></g><g stroke-width="1" stroke-linecap="butt"><path d="M322.70312,179.07168c0.31753,10.36739 -5.62517,18.96257 -13.25953,19.19265c-7.64373,0.23798 -14.09244,-7.98278 -14.40832,-18.34916c-0.32084,-10.36942 5.61489,-18.96432 13.2566,-19.19898c7.64236,-0.232 14.09078,7.98176 14.41126,18.3555z" fill="#ffffff" stroke="#231f20"/><path d="M313.79895,187.00858c-1.0916,1.78865 -3.30484,2.42724 -4.95616,1.41946c-1.64139,-1.00172 -2.09668,-3.27343 -1.00711,-5.05877c1.09058,-1.78699 3.31807,-2.41915 4.95946,-1.41743c1.64801,1.00576 2.09438,3.26975 1.0038,5.05674" fill="#231f20" stroke="none"/></g><path d="M343.52406,189.96635c3.59384,0 8.82951,-0.55051 9.10477,1.10296c0.2772,1.65735 -3.31277,8.14719 -5.79201,8.42244c-2.48699,0.27525 -11.87283,-4.5611 -12.00852,-7.59668c-0.14345,-3.03557 5.37912,-1.92873 8.69576,-1.92873z" fill="#5e4a42" stroke="#000000" stroke-width="1" stroke-linecap="butt"/><path d="M318.16556,216.75542c0,0 19.4526,-7.6759 26.37132,-11.0041c6.91447,-3.32735 18.5885,-10.37037 18.5885,-10.37037c0,0 0.01227,25.18457 -17.35827,32.34906c-17.36578,7.1706 -24.13096,-2.02755 -27.60155,-10.97459z" fill="none" stroke="#231f20" stroke-width="1.2" stroke-linecap="butt"/></g></g></svg>